<?xml version="1.0" encoding="UTF-8"?>
<!DOCTYPE svg PUBLIC "-//W3C//DTD SVG 1.1//EN" "http://www.w3.org/Graphics/SVG/1.1/DTD/svg11.dtd">
<!-- Creator: CorelDRAW -->
<svg xmlns="http://www.w3.org/2000/svg" xml:space="preserve" width="210mm" height="90mm" version="1.1" style="shape-rendering:geometricPrecision; text-rendering:geometricPrecision; image-rendering:optimizeQuality; fill-rule:evenodd; clip-rule:evenodd"
viewBox="0 0 21000 9000"
 xmlns:xlink="http://www.w3.org/1999/xlink"
 xmlns:xodm="http://www.corel.com/coreldraw/odm/2003">
 <defs>
  <style type="text/css">
   <![CDATA[
    .fil0 {fill:#E6E6E6;fill-rule:nonzero}
    .fil60 {fill:#E6E6E6;fill-rule:nonzero;fill-opacity:0.011765}
    .fil29 {fill:#E6E6E6;fill-rule:nonzero;fill-opacity:0.019608}
    .fil81 {fill:#E6E6E6;fill-rule:nonzero;fill-opacity:0.031373}
    .fil59 {fill:#E6E6E6;fill-rule:nonzero;fill-opacity:0.039216}
    .fil62 {fill:#E6E6E6;fill-rule:nonzero;fill-opacity:0.050980}
    .fil1 {fill:#E6E6E6;fill-rule:nonzero;fill-opacity:0.058824}
    .fil57 {fill:#E6E6E6;fill-rule:nonzero;fill-opacity:0.070588}
    .fil22 {fill:#E6E6E6;fill-rule:nonzero;fill-opacity:0.078431}
    .fil72 {fill:#E6E6E6;fill-rule:nonzero;fill-opacity:0.090196}
    .fil5 {fill:#E6E6E6;fill-rule:nonzero;fill-opacity:0.101961}
    .fil38 {fill:#E6E6E6;fill-rule:nonzero;fill-opacity:0.109804}
    .fil2 {fill:#E6E6E6;fill-rule:nonzero;fill-opacity:0.121569}
    .fil56 {fill:#E6E6E6;fill-rule:nonzero;fill-opacity:0.129412}
    .fil4 {fill:#E6E6E6;fill-rule:nonzero;fill-opacity:0.141176}
    .fil11 {fill:#E6E6E6;fill-rule:nonzero;fill-opacity:0.149020}
    .fil19 {fill:#E6E6E6;fill-rule:nonzero;fill-opacity:0.160784}
    .fil21 {fill:#E6E6E6;fill-rule:nonzero;fill-opacity:0.168627}
    .fil14 {fill:#E6E6E6;fill-rule:nonzero;fill-opacity:0.180392}
    .fil3 {fill:#E6E6E6;fill-rule:nonzero;fill-opacity:0.188235}
    .fil58 {fill:#E6E6E6;fill-rule:nonzero;fill-opacity:0.200000}
    .fil30 {fill:#E6E6E6;fill-rule:nonzero;fill-opacity:0.211765}
    .fil37 {fill:#E6E6E6;fill-rule:nonzero;fill-opacity:0.219608}
    .fil61 {fill:#E6E6E6;fill-rule:nonzero;fill-opacity:0.231373}
    .fil36 {fill:#E6E6E6;fill-rule:nonzero;fill-opacity:0.239216}
    .fil33 {fill:#E6E6E6;fill-rule:nonzero;fill-opacity:0.250980}
    .fil25 {fill:#E6E6E6;fill-rule:nonzero;fill-opacity:0.258824}
    .fil39 {fill:#E6E6E6;fill-rule:nonzero;fill-opacity:0.270588}
    .fil15 {fill:#E6E6E6;fill-rule:nonzero;fill-opacity:0.278431}
    .fil16 {fill:#E6E6E6;fill-rule:nonzero;fill-opacity:0.290196}
    .fil10 {fill:#E6E6E6;fill-rule:nonzero;fill-opacity:0.301961}
    .fil40 {fill:#E6E6E6;fill-rule:nonzero;fill-opacity:0.309804}
    .fil67 {fill:#E6E6E6;fill-rule:nonzero;fill-opacity:0.321569}
    .fil63 {fill:#E6E6E6;fill-rule:nonzero;fill-opacity:0.329412}
    .fil7 {fill:#E6E6E6;fill-rule:nonzero;fill-opacity:0.341176}
    .fil89 {fill:#E6E6E6;fill-rule:nonzero;fill-opacity:0.349020}
    .fil54 {fill:#E6E6E6;fill-rule:nonzero;fill-opacity:0.360784}
    .fil26 {fill:#E6E6E6;fill-rule:nonzero;fill-opacity:0.368627}
    .fil32 {fill:#E6E6E6;fill-rule:nonzero;fill-opacity:0.380392}
    .fil35 {fill:#E6E6E6;fill-rule:nonzero;fill-opacity:0.388235}
    .fil20 {fill:#E6E6E6;fill-rule:nonzero;fill-opacity:0.400000}
    .fil18 {fill:#E6E6E6;fill-rule:nonzero;fill-opacity:0.411765}
    .fil12 {fill:#E6E6E6;fill-rule:nonzero;fill-opacity:0.419608}
    .fil51 {fill:#E6E6E6;fill-rule:nonzero;fill-opacity:0.431373}
    .fil64 {fill:#E6E6E6;fill-rule:nonzero;fill-opacity:0.439216}
    .fil55 {fill:#E6E6E6;fill-rule:nonzero;fill-opacity:0.450980}
    .fil6 {fill:#E6E6E6;fill-rule:nonzero;fill-opacity:0.458824}
    .fil34 {fill:#E6E6E6;fill-rule:nonzero;fill-opacity:0.470588}
    .fil13 {fill:#E6E6E6;fill-rule:nonzero;fill-opacity:0.478431}
    .fil23 {fill:#E6E6E6;fill-rule:nonzero;fill-opacity:0.490196}
    .fil95 {fill:#E6E6E6;fill-rule:nonzero;fill-opacity:0.494118}
    .fil44 {fill:#E6E6E6;fill-rule:nonzero;fill-opacity:0.501961}
    .fil84 {fill:#E6E6E6;fill-rule:nonzero;fill-opacity:0.509804}
    .fil8 {fill:#E6E6E6;fill-rule:nonzero;fill-opacity:0.521569}
    .fil46 {fill:#E6E6E6;fill-rule:nonzero;fill-opacity:0.529412}
    .fil9 {fill:#E6E6E6;fill-rule:nonzero;fill-opacity:0.541176}
    .fil27 {fill:#E6E6E6;fill-rule:nonzero;fill-opacity:0.549020}
    .fil17 {fill:#E6E6E6;fill-rule:nonzero;fill-opacity:0.560784}
    .fil31 {fill:#E6E6E6;fill-rule:nonzero;fill-opacity:0.568627}
    .fil24 {fill:#E6E6E6;fill-rule:nonzero;fill-opacity:0.580392}
    .fil78 {fill:#E6E6E6;fill-rule:nonzero;fill-opacity:0.588235}
    .fil28 {fill:#E6E6E6;fill-rule:nonzero;fill-opacity:0.600000}
    .fil68 {fill:#E6E6E6;fill-rule:nonzero;fill-opacity:0.611765}
    .fil73 {fill:#E6E6E6;fill-rule:nonzero;fill-opacity:0.619608}
    .fil82 {fill:#E6E6E6;fill-rule:nonzero;fill-opacity:0.639216}
    .fil47 {fill:#E6E6E6;fill-rule:nonzero;fill-opacity:0.650980}
    .fil69 {fill:#E6E6E6;fill-rule:nonzero;fill-opacity:0.658824}
    .fil90 {fill:#E6E6E6;fill-rule:nonzero;fill-opacity:0.670588}
    .fil52 {fill:#E6E6E6;fill-rule:nonzero;fill-opacity:0.678431}
    .fil41 {fill:#E6E6E6;fill-rule:nonzero;fill-opacity:0.690196}
    .fil66 {fill:#E6E6E6;fill-rule:nonzero;fill-opacity:0.701961}
    .fil71 {fill:#E6E6E6;fill-rule:nonzero;fill-opacity:0.709804}
    .fil65 {fill:#E6E6E6;fill-rule:nonzero;fill-opacity:0.721569}
    .fil87 {fill:#E6E6E6;fill-rule:nonzero;fill-opacity:0.729412}
    .fil75 {fill:#E6E6E6;fill-rule:nonzero;fill-opacity:0.741176}
    .fil50 {fill:#E6E6E6;fill-rule:nonzero;fill-opacity:0.749020}
    .fil94 {fill:#E6E6E6;fill-rule:nonzero;fill-opacity:0.760784}
    .fil76 {fill:#E6E6E6;fill-rule:nonzero;fill-opacity:0.780392}
    .fil42 {fill:#E6E6E6;fill-rule:nonzero;fill-opacity:0.788235}
    .fil48 {fill:#E6E6E6;fill-rule:nonzero;fill-opacity:0.800000}
    .fil79 {fill:#E6E6E6;fill-rule:nonzero;fill-opacity:0.811765}
    .fil49 {fill:#E6E6E6;fill-rule:nonzero;fill-opacity:0.819608}
    .fil91 {fill:#E6E6E6;fill-rule:nonzero;fill-opacity:0.831373}
    .fil53 {fill:#E6E6E6;fill-rule:nonzero;fill-opacity:0.839216}
    .fil88 {fill:#E6E6E6;fill-rule:nonzero;fill-opacity:0.870588}
    .fil43 {fill:#E6E6E6;fill-rule:nonzero;fill-opacity:0.878431}
    .fil85 {fill:#E6E6E6;fill-rule:nonzero;fill-opacity:0.890196}
    .fil93 {fill:#E6E6E6;fill-rule:nonzero;fill-opacity:0.901961}
    .fil45 {fill:#E6E6E6;fill-rule:nonzero;fill-opacity:0.909804}
    .fil86 {fill:#E6E6E6;fill-rule:nonzero;fill-opacity:0.921569}
    .fil74 {fill:#E6E6E6;fill-rule:nonzero;fill-opacity:0.929412}
    .fil83 {fill:#E6E6E6;fill-rule:nonzero;fill-opacity:0.941176}
    .fil70 {fill:#E6E6E6;fill-rule:nonzero;fill-opacity:0.949020}
    .fil80 {fill:#E6E6E6;fill-rule:nonzero;fill-opacity:0.968627}
    .fil77 {fill:#E6E6E6;fill-rule:nonzero;fill-opacity:0.980392}
    .fil92 {fill:#E6E6E6;fill-rule:nonzero;fill-opacity:0.988235}
   ]]>
  </style>
 </defs>
 <g id="Слой_x0020_1">
  <metadata id="CorelCorpID_0Corel-Layer"/>
  <g id="_2104355390736">
   <polygon class="fil0" points="13033.72,4136.98 14541.8,4136.98 14541.8,7663.87 13033.72,7663.87 "/>
   <polygon class="fil0" points="13856.31,3959.05 14541.8,3959.05 14541.8,4159.81 13856.31,4159.81 "/>
   <polygon class="fil0" points="14144.21,3844.99 14541.8,3844.99 14541.8,3959.05 14144.21,3959.05 "/>
   <polygon class="fil1" points="13664.36,4383.36 13911.14,4383.36 13911.14,4565.87 13664.36,4565.87 "/>
   <polygon class="fil2" points="13664.36,4835.06 13911.14,4835.06 13911.14,5017.57 13664.36,5017.57 "/>
   <polygon class="fil3" points="13664.36,5738.45 13911.14,5738.45 13911.14,5920.96 13664.36,5920.96 "/>
   <polygon class="fil4" points="13664.36,6641.84 13911.14,6641.84 13911.14,6824.35 13664.36,6824.35 "/>
   <polygon class="fil5" points="13664.36,7093.54 13911.14,7093.54 13911.14,7276.05 13664.36,7276.05 "/>
   <polygon class="fil0" points="16817.58,4520.23 18883.19,4520.23 18883.19,6409.14 16817.58,6409.14 "/>
   <polygon class="fil0" points="17142.04,4351.42 18554.15,4351.42 18554.15,5163.56 17142.04,5163.56 "/>
   <polygon class="fil0" points="16666.8,5711.06 18732.37,5711.06 18732.37,7599.98 16666.8,7599.98 "/>
   <polygon class="fil0" points="16995.81,5542.23 18407.91,5542.23 18407.91,6354.37 16995.81,6354.37 "/>
   <polygon class="fil0" points="13915.71,5460.11 15981.29,5460.11 15981.29,7636.49 13915.71,7636.49 "/>
   <polygon class="fil0" points="14240.17,5268.5 15652.28,5268.5 15652.28,6208.38 14240.17,6208.38 "/>
   <polygon class="fil0" points="7001.46,6121.72 9067.06,6121.72 9067.06,8225.06 7001.46,8225.06 "/>
   <polygon class="fil0" points="7325.92,5934.64 8738.03,5934.64 8738.03,6842.61 7325.92,6842.61 "/>
   <polygon class="fil0" points="11479.96,1778.11 13787.76,1778.11 13787.76,7631.94 11479.96,7631.94 "/>
   <polygon class="fil6" points="13115.98,2042.75 13673.51,2042.75 13673.51,2147.71 13115.98,2147.71 "/>
   <polygon class="fil7" points="12352.79,2042.75 12910.32,2042.75 12910.32,2147.71 12352.79,2147.71 "/>
   <polygon class="fil8" points="11594.21,2042.75 12151.74,2042.75 12151.74,2147.71 11594.21,2147.71 "/>
   <polygon class="fil9" points="13115.98,2284.58 13673.51,2284.58 13673.51,2389.51 13115.98,2389.51 "/>
   <polygon class="fil10" points="12352.79,2284.58 12910.32,2284.58 12910.32,2389.51 12352.79,2389.51 "/>
   <polygon class="fil1" points="11594.21,2284.58 12151.74,2284.58 12151.74,2389.51 11594.21,2389.51 "/>
   <polygon class="fil11" points="13115.98,2526.38 13673.51,2526.38 13673.51,2631.34 13115.98,2631.34 "/>
   <polygon class="fil12" points="12352.79,2526.38 12910.32,2526.38 12910.32,2631.34 12352.79,2631.34 "/>
   <polygon class="fil13" points="11594.21,2526.38 12151.74,2526.38 12151.74,2631.34 11594.21,2631.34 "/>
   <polygon class="fil14" points="13115.98,2768.21 13673.51,2768.21 13673.51,2873.14 13115.98,2873.14 "/>
   <polygon class="fil15" points="11594.21,2768.21 12151.74,2768.21 12151.74,2873.14 11594.21,2873.14 "/>
   <polygon class="fil16" points="13115.98,3010.01 13673.51,3010.01 13673.51,3114.97 13115.98,3114.97 "/>
   <polygon class="fil15" points="12352.79,3010.01 12910.32,3010.01 12910.32,3114.97 12352.79,3114.97 "/>
   <polygon class="fil17" points="11594.21,3010.01 12151.74,3010.01 12151.74,3114.97 11594.21,3114.97 "/>
   <polygon class="fil18" points="13115.98,3251.84 13673.51,3251.84 13673.51,3356.78 13115.98,3356.78 "/>
   <polygon class="fil19" points="12352.79,3251.84 12910.32,3251.84 12910.32,3356.78 12352.79,3356.78 "/>
   <polygon class="fil20" points="11594.21,3251.84 12151.74,3251.84 12151.74,3356.78 11594.21,3356.78 "/>
   <polygon class="fil5" points="13115.98,3493.67 13673.51,3493.67 13673.51,3598.61 13115.98,3598.61 "/>
   <polygon class="fil21" points="12352.79,3493.67 12910.32,3493.67 12910.32,3598.61 12352.79,3598.61 "/>
   <polygon class="fil22" points="11594.21,3493.67 12151.74,3493.67 12151.74,3598.61 11594.21,3598.61 "/>
   <polygon class="fil23" points="13115.98,3735.47 13673.51,3735.47 13673.51,3840.41 13115.98,3840.41 "/>
   <polygon class="fil24" points="12352.79,3735.47 12910.32,3735.47 12910.32,3840.41 12352.79,3840.41 "/>
   <polygon class="fil24" points="11594.21,3735.47 12151.74,3735.47 12151.74,3840.41 11594.21,3840.41 "/>
   <polygon class="fil25" points="13115.98,3977.3 13673.51,3977.3 13673.51,4082.24 13115.98,4082.24 "/>
   <polygon class="fil26" points="12352.79,3977.3 12910.32,3977.3 12910.32,4082.24 12352.79,4082.24 "/>
   <polygon class="fil7" points="11594.21,3977.3 12151.74,3977.3 12151.74,4082.24 11594.21,4082.24 "/>
   <polygon class="fil27" points="13115.98,4219.11 13673.51,4219.11 13673.51,4324.04 13115.98,4324.04 "/>
   <polygon class="fil2" points="12352.79,4219.11 12910.32,4219.11 12910.32,4324.04 12352.79,4324.04 "/>
   <polygon class="fil28" points="11594.21,4219.11 12151.74,4219.11 12151.74,4324.04 11594.21,4324.04 "/>
   <polygon class="fil29" points="13115.98,4460.94 13673.51,4460.94 13673.51,4565.87 13115.98,4565.87 "/>
   <polygon class="fil15" points="12352.79,4460.94 12910.32,4460.94 12910.32,4565.87 12352.79,4565.87 "/>
   <polygon class="fil30" points="11594.21,4460.94 12151.74,4460.94 12151.74,4565.87 11594.21,4565.87 "/>
   <polygon class="fil31" points="13115.98,4702.74 13673.51,4702.74 13673.51,4807.7 13115.98,4807.7 "/>
   <polygon class="fil32" points="12352.79,4702.74 12910.32,4702.74 12910.32,4807.7 12352.79,4807.7 "/>
   <polygon class="fil33" points="11594.21,4702.74 12151.74,4702.74 12151.74,4807.7 11594.21,4807.7 "/>
   <polygon class="fil11" points="13115.98,4944.57 13673.51,4944.57 13673.51,5049.5 13115.98,5049.5 "/>
   <polygon class="fil34" points="12352.79,4944.57 12910.32,4944.57 12910.32,5049.5 12352.79,5049.5 "/>
   <polygon class="fil10" points="11594.21,4944.57 12151.74,4944.57 12151.74,5049.5 11594.21,5049.5 "/>
   <polygon class="fil20" points="13115.98,5186.37 13673.51,5186.37 13673.51,5291.33 13115.98,5291.33 "/>
   <polygon class="fil35" points="12352.79,5186.37 12910.32,5186.37 12910.32,5291.33 12352.79,5291.33 "/>
   <polygon class="fil36" points="11594.21,5186.37 12151.74,5186.37 12151.74,5291.33 11594.21,5291.33 "/>
   <polygon class="fil6" points="13115.98,5428.2 13673.51,5428.2 13673.51,5533.13 13115.98,5533.13 "/>
   <polygon class="fil37" points="12352.79,5428.2 12910.32,5428.2 12910.32,5533.13 12352.79,5533.13 "/>
   <polygon class="fil38" points="11594.21,5428.2 12151.74,5428.2 12151.74,5533.13 11594.21,5533.13 "/>
   <polygon class="fil38" points="12352.79,5670.03 12910.32,5670.03 12910.32,5774.96 12352.79,5774.96 "/>
   <polygon class="fil29" points="11594.21,5670.03 12151.74,5670.03 12151.74,5774.96 11594.21,5774.96 "/>
   <polygon class="fil39" points="13115.98,5911.83 13673.51,5911.83 13673.51,6016.79 13115.98,6016.79 "/>
   <polygon class="fil30" points="12352.79,5911.83 12910.32,5911.83 12910.32,6016.79 12352.79,6016.79 "/>
   <polygon class="fil23" points="11594.21,5911.83 12151.74,5911.83 12151.74,6016.79 11594.21,6016.79 "/>
   <polygon class="fil28" points="13115.98,6153.66 13673.51,6153.66 13673.51,6258.59 13115.98,6258.59 "/>
   <polygon class="fil40" points="12352.79,6153.66 12910.32,6153.66 12910.32,6258.59 12352.79,6258.59 "/>
   <polygon class="fil37" points="11594.21,6153.66 12151.74,6153.66 12151.74,6258.59 11594.21,6258.59 "/>
   <polygon class="fil9" points="13115.98,6395.46 13673.51,6395.46 13673.51,6500.42 13115.98,6500.42 "/>
   <polygon class="fil28" points="12352.79,6395.46 12910.32,6395.46 12910.32,6500.42 12352.79,6500.42 "/>
   <polygon class="fil22" points="11594.21,6395.46 12151.74,6395.46 12151.74,6500.42 11594.21,6500.42 "/>
   <polygon class="fil27" points="12352.79,6637.29 12910.32,6637.29 12910.32,6742.23 12352.79,6742.23 "/>
   <polygon class="fil0" points="11594.21,6637.29 12151.74,6637.29 12151.74,6742.23 11594.21,6742.23 "/>
   <polygon class="fil28" points="13079.42,2042.75 13115.98,2042.75 13115.98,6742.23 13079.42,6742.23 "/>
   <polygon class="fil28" points="12151.74,2042.75 12188.3,2042.75 12188.3,6742.23 12151.74,6742.23 "/>
   <polygon class="fil0" points="10328.33,1778.11 11479.96,1778.11 11479.96,7631.94 10328.33,7631.94 "/>
   <polygon class="fil41" points="10497.43,2042.75 11365.71,2042.75 11365.71,2147.71 10497.43,2147.71 "/>
   <polygon class="fil42" points="10497.43,2284.58 11365.71,2284.58 11365.71,2389.51 10497.43,2389.51 "/>
   <polygon class="fil3" points="10497.43,2526.38 11365.71,2526.38 11365.71,2631.34 10497.43,2631.34 "/>
   <polygon class="fil43" points="10497.43,2768.21 11365.71,2768.21 11365.71,2873.14 10497.43,2873.14 "/>
   <polygon class="fil44" points="10497.43,3010.01 11365.71,3010.01 11365.71,3114.97 10497.43,3114.97 "/>
   <polygon class="fil33" points="10497.43,3251.84 11365.71,3251.84 11365.71,3356.78 10497.43,3356.78 "/>
   <polygon class="fil45" points="10497.43,3493.67 11365.71,3493.67 11365.71,3598.61 10497.43,3598.61 "/>
   <polygon class="fil29" points="10497.43,3735.47 11365.71,3735.47 11365.71,3840.41 10497.43,3840.41 "/>
   <polygon class="fil46" points="10497.43,3977.3 11365.71,3977.3 11365.71,4082.24 10497.43,4082.24 "/>
   <polygon class="fil47" points="10497.43,4219.11 11365.71,4219.11 11365.71,4324.04 10497.43,4324.04 "/>
   <polygon class="fil0" points="10497.43,4460.94 11365.71,4460.94 11365.71,4565.87 10497.43,4565.87 "/>
   <polygon class="fil48" points="10497.43,4702.74 11365.71,4702.74 11365.71,4807.7 10497.43,4807.7 "/>
   <polygon class="fil49" points="10497.43,4944.57 11365.71,4944.57 11365.71,5049.5 10497.43,5049.5 "/>
   <polygon class="fil50" points="10497.43,5186.37 11365.71,5186.37 11365.71,5291.33 10497.43,5291.33 "/>
   <polygon class="fil40" points="10497.43,5428.2 11365.71,5428.2 11365.71,5533.13 10497.43,5533.13 "/>
   <polygon class="fil37" points="10497.43,5670.03 11365.71,5670.03 11365.71,5774.96 10497.43,5774.96 "/>
   <polygon class="fil51" points="10497.43,5911.83 11365.71,5911.83 11365.71,6016.79 10497.43,6016.79 "/>
   <polygon class="fil52" points="10497.43,6153.66 11365.71,6153.66 11365.71,6258.59 10497.43,6258.59 "/>
   <polygon class="fil32" points="10497.43,6395.46 11365.71,6395.46 11365.71,6500.42 10497.43,6500.42 "/>
   <polygon class="fil53" points="10497.43,6637.29 11365.71,6637.29 11365.71,6742.23 10497.43,6742.23 "/>
   <path class="fil0" d="M13381.04 1467.86l0 310.25 -1494.36 0 0 -310.25 1494.36 0zm-333.61 209.9l155.36 0 0 -104.96 -155.36 0 0 104.96zm-242.2 0l150.81 0 0 -104.96 -150.81 0 0 104.96zm-246.78 0l150.82 0 0 -104.96 -150.82 0 0 104.96zm-246.77 0l155.36 0 0 -104.96 -155.36 0 0 104.96zm-246.78 0l155.39 0 0 -104.96 -155.39 0 0 104.96z"/>
   <polygon class="fil0" points="11612.49,1572.8 11653.6,1572.8 11653.6,1677.76 11612.49,1677.76 "/>
   <path class="fil0" d="M11886.68 1467.86l0 310.25 -703.77 0 0 -310.25 703.77 0zm-274.19 209.9l150.81 0 0 -104.96 -150.81 0 0 104.96zm-324.46 0l150.79 0 0 -104.96 -150.79 0 0 104.96z"/>
   <polygon class="fil0" points="11292.58,1572.8 11333.72,1572.8 11333.72,1677.76 11292.58,1677.76 "/>
   <polygon class="fil0" points="11173.78,8028.84 14281.29,8028.84 11173.78,5738.42 "/>
   <polygon class="fil0" points="15807.64,537.08 16059,537.08 16059,1490.67 15807.64,1490.67 "/>
   <polygon class="fil0" points="16054.42,537.08 16310.32,537.08 16310.32,1490.67 16054.42,1490.67 "/>
   <polygon class="fil0" points="15547.16,537.08 15803.07,537.08 15803.07,1490.67 15547.16,1490.67 "/>
   <polygon class="fil0" points="14806.83,2143.13 15519.75,2143.13 15519.75,7581.75 14806.83,7581.75 "/>
   <polygon class="fil0" points="16356.02,2143.13 16977.52,2143.13 16977.52,7581.75 16356.02,7581.75 "/>
   <polygon class="fil0" points="15519.75,2143.13 16360.6,2143.13 16360.6,7581.75 15519.75,7581.75 "/>
   <polygon class="fil28" points="16799.3,2302.81 16890.71,2302.81 16890.71,7508.72 16799.3,7508.72 "/>
   <polygon class="fil28" points="16621.08,2302.81 16712.49,2302.81 16712.49,7508.72 16621.08,7508.72 "/>
   <polygon class="fil28" points="16442.85,2302.81 16534.24,2302.81 16534.24,7508.72 16442.85,7508.72 "/>
   <polygon class="fil0" points="15378.06,2302.81 15469.48,2302.81 15469.48,7508.72 15378.06,7508.72 "/>
   <polygon class="fil0" points="15199.84,2302.81 15291.26,2302.81 15291.26,7508.72 15199.84,7508.72 "/>
   <polygon class="fil0" points="14852.55,2302.81 14943.94,2302.81 14943.94,7508.72 14852.55,7508.72 "/>
   <polygon class="fil0" points="15021.62,2302.81 15113.03,2302.81 15113.03,7508.72 15021.62,7508.72 "/>
   <path class="fil48" d="M16255.5 7508.72l-630.66 0 0 -5205.91 630.66 0 0 5205.91zm-100.54 -5114.66l-429.58 0 0 5023.44 429.58 0 0 -5023.44z"/>
   <path class="fil48" d="M16072.7 7330.79l-269.63 0 0 -4854.6 269.63 0 0 4854.6zm-91.41 -4740.54l-31.99 0 -18.28 0 -36.54 0 0 4626.48 36.54 0 18.28 0 31.99 0 0 -4626.48z"/>
   <polygon class="fil48" points="15931.02,2590.25 15949.3,2590.25 15949.3,7216.73 15931.02,7216.73 "/>
   <polygon class="fil0" points="15615.71,1189.55 16246.35,1189.55 16246.35,2143.13 15615.71,2143.13 "/>
   <polygon class="fil0" points="15615.71,1189.55 16246.35,1189.55 16246.35,2143.13 15615.71,2143.13 "/>
   <polygon class="fil0" points="14985.05,1189.55 15615.71,1189.55 15615.71,2143.13 14985.05,2143.13 "/>
   <polygon class="fil0" points="16246.35,1189.55 16877.01,1189.55 16877.01,2143.13 16246.35,2143.13 "/>
   <polygon class="fil0" points="15551.74,537.08 16310.32,537.08 16059,710.47 15803.07,710.47 "/>
   <polygon class="fil0" points="1992.86,185.77 2358.45,185.77 2358.45,1257.99 1992.86,1257.99 "/>
   <polygon class="fil0" points="2363.03,185.77 2728.62,185.77 2728.62,1257.99 2363.03,1257.99 "/>
   <polygon class="fil0" points="1627.27,185.77 1992.86,185.77 1992.86,1257.99 1627.27,1257.99 "/>
   <polygon class="fil0" points="548.78,1997.14 1581.57,1997.14 1581.57,8124.7 548.78,8124.7 "/>
   <polygon class="fil0" points="2797.17,1997.14 3692.87,1997.14 3692.87,8124.7 2797.17,8124.7 "/>
   <polygon class="fil0" points="1581.57,1997.14 2797.16,1997.14 2797.16,8124.7 1581.57,8124.7 "/>
   <polygon class="fil20" points="3436.94,2179.62 3569.47,2179.62 3569.47,8042.55 3436.94,8042.55 "/>
   <polygon class="fil20" points="3176.46,2179.62 3308.99,2179.62 3308.99,8042.55 3176.46,8042.55 "/>
   <polygon class="fil20" points="2915.98,2179.62 3048.51,2179.62 3048.51,8042.55 2915.98,8042.55 "/>
   <polygon class="fil0" points="1375.93,2179.62 1508.45,2179.62 1508.45,8042.55 1375.93,8042.55 "/>
   <polygon class="fil0" points="1115.44,2179.62 1247.97,2179.62 1247.97,8042.55 1115.44,8042.55 "/>
   <polygon class="fil0" points="617.33,2179.62 749.85,2179.62 749.85,8042.55 617.33,8042.55 "/>
   <polygon class="fil0" points="859.53,2179.62 992.06,2179.62 992.06,8042.55 859.53,8042.55 "/>
   <path class="fil0" d="M2641.79 8042.55l-913.98 0 0 -5862.93 913.98 0 0 5862.93zm-141.67 -5762.55l-621.51 0 0 5662.16 621.51 0 0 -5662.16z"/>
   <path class="fil0" d="M2385.87 7846.36l-393.01 0 0 -5470.53 393.01 0 0 5470.53zm-137.09 -5342.79l-50.27 0 -22.85 0 -50.27 0 0 5215.05 50.27 0 22.85 0 50.27 0 0 -5215.05z"/>
   <polygon class="fil0" points="2175.66,2503.57 2198.5,2503.57 2198.5,7718.62 2175.66,7718.62 "/>
   <polygon class="fil0" points="1718.67,924.91 2632.65,924.91 2632.65,1997.14 1718.67,1997.14 "/>
   <polygon class="fil0" points="1718.67,924.91 2632.65,924.91 2632.65,1997.14 1718.67,1997.14 "/>
   <polygon class="fil0" points="804.69,924.91 1718.67,924.91 1718.67,1997.14 804.69,1997.14 "/>
   <polygon class="fil0" points="2628.07,924.91 3542.06,924.91 3542.06,1997.14 2628.07,1997.14 "/>
   <polygon class="fil0" points="1622.71,185.77 2728.62,185.77 2358.46,381.96 1992.87,381.96 "/>
   <polygon class="fil0" points="4629.68,2845.76 7129.41,2845.76 7129.41,3676.13 4629.68,3676.13 "/>
   <polygon class="fil0" points="6146.88,2845.76 7129.41,2845.76 7129.41,3676.13 6146.88,3676.13 "/>
   <polygon class="fil0" points="6146.88,3680.71 8089.11,3680.71 8089.11,7714.04 6146.88,7714.04 "/>
   <polygon class="fil0" points="3112.49,3680.71 6146.88,3680.71 6146.88,7714.04 3112.49,7714.04 "/>
   <polygon class="fil0" points="6384.53,3270.07 7878.87,3270.07 7878.87,3680.71 6384.53,3680.71 "/>
   <polygon class="fil0" points="3564.9,3270.07 5699.05,3270.07 5699.05,3680.71 3564.9,3680.71 "/>
   <polygon class="fil0" points="5292.33,2530.93 6146.88,2530.93 6146.88,2845.73 5292.33,2845.73 "/>
   <polygon class="fil0" points="5721.88,2211.55 6146.88,2211.55 6146.88,2526.38 5721.88,2526.38 "/>
   <polygon class="fil0" points="6151.46,2211.55 6576.46,2211.55 6576.46,2526.38 6151.46,2526.38 "/>
   <polygon class="fil0" points="6146.88,2530.93 6800.38,2530.93 6800.38,2845.73 6146.88,2845.73 "/>
   <polygon class="fil0" points="6174.32,2211.55 6146.88,1481.54 6124.05,2211.55 "/>
   <polygon class="fil2" points="7476.73,3844.96 7636.67,3844.96 7636.67,4004.63 7476.73,4004.63 "/>
   <polygon class="fil33" points="7257.37,3844.96 7417.33,3844.96 7417.33,4004.63 7257.37,4004.63 "/>
   <polygon class="fil54" points="7038.03,3844.96 7197.97,3844.96 7197.97,4004.63 7038.03,4004.63 "/>
   <polygon class="fil2" points="6818.66,3844.96 6978.63,3844.96 6978.63,4004.63 6818.66,4004.63 "/>
   <polygon class="fil4" points="6599.32,3844.96 6759.26,3844.96 6759.26,4004.63 6599.32,4004.63 "/>
   <polygon class="fil15" points="7476.73,4054.83 7636.67,4054.83 7636.67,4214.53 7476.73,4214.53 "/>
   <polygon class="fil20" points="7257.37,4054.83 7417.33,4054.83 7417.33,4214.53 7257.37,4214.53 "/>
   <polygon class="fil19" points="7038.03,4054.83 7197.97,4054.83 7197.97,4214.53 7038.03,4214.53 "/>
   <polygon class="fil21" points="6599.32,4054.83 6759.26,4054.83 6759.26,4214.53 6599.32,4214.53 "/>
   <polygon class="fil39" points="7476.73,4264.72 7636.67,4264.72 7636.67,4424.4 7476.73,4424.4 "/>
   <polygon class="fil55" points="7257.37,4264.72 7417.33,4264.72 7417.33,4424.4 7257.37,4424.4 "/>
   <polygon class="fil55" points="7038.03,4264.72 7197.97,4264.72 7197.97,4424.4 7038.03,4424.4 "/>
   <polygon class="fil13" points="6818.66,4264.72 6978.63,4264.72 6978.63,4424.4 6818.66,4424.4 "/>
   <polygon class="fil33" points="6599.32,4264.72 6759.26,4264.72 6759.26,4424.4 6599.32,4424.4 "/>
   <polygon class="fil15" points="7476.73,4474.59 7636.67,4474.59 7636.67,4634.29 7476.73,4634.29 "/>
   <polygon class="fil56" points="7257.37,4474.59 7417.33,4474.59 7417.33,4634.29 7257.37,4634.29 "/>
   <polygon class="fil57" points="7038.03,4474.59 7197.97,4474.59 7197.97,4634.29 7038.03,4634.29 "/>
   <polygon class="fil35" points="6818.66,4474.59 6978.63,4474.59 6978.63,4634.29 6818.66,4634.29 "/>
   <polygon class="fil34" points="6599.32,4474.59 6759.26,4474.59 6759.26,4634.29 6599.32,4634.29 "/>
   <polygon class="fil15" points="7476.73,4684.46 7636.67,4684.46 7636.67,4844.16 7476.73,4844.16 "/>
   <polygon class="fil58" points="7257.37,4684.46 7417.33,4684.46 7417.33,4844.16 7257.37,4844.16 "/>
   <polygon class="fil59" points="7038.03,4684.46 7197.97,4684.46 7197.97,4844.16 7038.03,4844.16 "/>
   <polygon class="fil51" points="6818.66,4684.46 6978.63,4684.46 6978.63,4844.16 6818.66,4844.16 "/>
   <polygon class="fil13" points="6599.32,4684.46 6759.26,4684.46 6759.26,4844.16 6599.32,4844.16 "/>
   <polygon class="fil15" points="7476.73,4894.35 7636.67,4894.35 7636.67,5054.05 7476.73,5054.05 "/>
   <polygon class="fil3" points="7257.37,4894.35 7417.33,4894.35 7417.33,5054.05 7257.37,5054.05 "/>
   <polygon class="fil60" points="7038.03,4894.35 7197.97,4894.35 7197.97,5054.05 7038.03,5054.05 "/>
   <polygon class="fil39" points="6818.66,4894.35 6978.63,4894.35 6978.63,5054.05 6818.66,5054.05 "/>
   <polygon class="fil36" points="6599.32,4894.35 6759.26,4894.35 6759.26,5054.05 6599.32,5054.05 "/>
   <polygon class="fil57" points="7476.73,5108.79 7636.67,5108.79 7636.67,5268.47 7476.73,5268.47 "/>
   <polygon class="fil33" points="7257.37,5108.79 7417.33,5108.79 7417.33,5268.47 7257.37,5268.47 "/>
   <polygon class="fil25" points="7038.03,5108.79 7197.97,5108.79 7197.97,5268.47 7038.03,5268.47 "/>
   <polygon class="fil35" points="6818.66,5108.79 6978.63,5108.79 6978.63,5268.47 6818.66,5268.47 "/>
   <polygon class="fil37" points="6599.32,5108.79 6759.26,5108.79 6759.26,5268.47 6599.32,5268.47 "/>
   <polygon class="fil11" points="7476.73,5318.66 7636.67,5318.66 7636.67,5478.36 7476.73,5478.36 "/>
   <polygon class="fil61" points="7257.37,5318.66 7417.33,5318.66 7417.33,5478.36 7257.37,5478.36 "/>
   <polygon class="fil62" points="7038.03,5318.66 7197.97,5318.66 7197.97,5478.36 7038.03,5478.36 "/>
   <polygon class="fil58" points="6818.66,5318.66 6978.63,5318.66 6978.63,5478.36 6818.66,5478.36 "/>
   <polygon class="fil40" points="6599.32,5318.66 6759.26,5318.66 6759.26,5478.36 6599.32,5478.36 "/>
   <polygon class="fil11" points="7476.73,5528.56 7636.67,5528.56 7636.67,5688.23 7476.73,5688.23 "/>
   <polygon class="fil63" points="7257.37,5528.56 7417.33,5528.56 7417.33,5688.23 7257.37,5688.23 "/>
   <polygon class="fil6" points="7038.03,5528.56 7197.97,5528.56 7197.97,5688.23 7038.03,5688.23 "/>
   <polygon class="fil33" points="6818.66,5528.56 6978.63,5528.56 6978.63,5688.23 6818.66,5688.23 "/>
   <polygon class="fil51" points="6599.32,5528.56 6759.26,5528.56 6759.26,5688.23 6599.32,5688.23 "/>
   <polygon class="fil20" points="7476.73,5738.42 7636.67,5738.42 7636.67,5898.13 7476.73,5898.13 "/>
   <polygon class="fil35" points="7257.37,5738.42 7417.33,5738.42 7417.33,5898.13 7257.37,5898.13 "/>
   <polygon class="fil60" points="7038.03,5738.42 7197.97,5738.42 7197.97,5898.13 7038.03,5898.13 "/>
   <polygon class="fil2" points="6818.66,5738.42 6978.63,5738.42 6978.63,5898.13 6818.66,5898.13 "/>
   <polygon class="fil57" points="6599.32,5738.42 6759.26,5738.42 6759.26,5898.13 6599.32,5898.13 "/>
   <polygon class="fil57" points="7476.73,5948.32 7636.67,5948.32 7636.67,6107.99 7476.73,6107.99 "/>
   <polygon class="fil29" points="7257.37,5948.32 7417.33,5948.32 7417.33,6107.99 7257.37,6107.99 "/>
   <polygon class="fil2" points="7038.03,5948.32 7197.97,5948.32 7197.97,6107.99 7038.03,6107.99 "/>
   <polygon class="fil61" points="6818.66,5948.32 6978.63,5948.32 6978.63,6107.99 6818.66,6107.99 "/>
   <polygon class="fil25" points="6599.32,5948.32 6759.26,5948.32 6759.26,6107.99 6599.32,6107.99 "/>
   <polygon class="fil39" points="7476.73,6158.18 7636.67,6158.18 7636.67,6317.89 7476.73,6317.89 "/>
   <polygon class="fil32" points="7257.37,6158.18 7417.33,6158.18 7417.33,6317.89 7257.37,6317.89 "/>
   <polygon class="fil62" points="7038.03,6158.18 7197.97,6158.18 7197.97,6317.89 7038.03,6317.89 "/>
   <polygon class="fil55" points="6818.66,6158.18 6978.63,6158.18 6978.63,6317.89 6818.66,6317.89 "/>
   <polygon class="fil11" points="6599.32,6158.18 6759.26,6158.18 6759.26,6317.89 6599.32,6317.89 "/>
   <polygon class="fil1" points="7476.73,6368.08 7636.67,6368.08 7636.67,6527.75 7476.73,6527.75 "/>
   <polygon class="fil34" points="7257.37,6368.08 7417.33,6368.08 7417.33,6527.75 7257.37,6527.75 "/>
   <polygon class="fil11" points="7038.03,6368.08 7197.97,6368.08 7197.97,6527.75 7038.03,6527.75 "/>
   <polygon class="fil64" points="6818.66,6368.08 6978.63,6368.08 6978.63,6527.75 6818.66,6527.75 "/>
   <polygon class="fil4" points="6599.32,6368.08 6759.26,6368.08 6759.26,6527.75 6599.32,6527.75 "/>
   <polygon class="fil11" points="7476.73,6577.95 7636.67,6577.95 7636.67,6737.65 7476.73,6737.65 "/>
   <polygon class="fil51" points="7257.37,6577.95 7417.33,6577.95 7417.33,6737.65 7257.37,6737.65 "/>
   <polygon class="fil57" points="7038.03,6577.95 7197.97,6577.95 7197.97,6737.65 7038.03,6737.65 "/>
   <polygon class="fil34" points="6818.66,6577.95 6978.63,6577.95 6978.63,6737.65 6818.66,6737.65 "/>
   <polygon class="fil38" points="6599.32,6577.95 6759.26,6577.95 6759.26,6737.65 6599.32,6737.65 "/>
   <polygon class="fil57" points="7476.73,6787.81 7636.67,6787.81 7636.67,6947.52 7476.73,6947.52 "/>
   <polygon class="fil7" points="7257.37,6787.81 7417.33,6787.81 7417.33,6947.52 7257.37,6947.52 "/>
   <polygon class="fil44" points="7038.03,6787.81 7197.97,6787.81 7197.97,6947.52 7038.03,6947.52 "/>
   <polygon class="fil54" points="6818.66,6787.81 6978.63,6787.81 6978.63,6947.52 6818.66,6947.52 "/>
   <polygon class="fil7" points="6599.32,6787.81 6759.26,6787.81 6759.26,6947.52 6599.32,6947.52 "/>
   <polygon class="fil34" points="7476.73,6997.71 7636.67,6997.71 7636.67,7157.41 7476.73,7157.41 "/>
   <polygon class="fil18" points="7257.37,6997.71 7417.33,6997.71 7417.33,7157.41 7257.37,7157.41 "/>
   <polygon class="fil10" points="7038.03,6997.71 7197.97,6997.71 7197.97,7157.41 7038.03,7157.41 "/>
   <polygon class="fil63" points="6818.66,6997.71 6978.63,6997.71 6978.63,7157.41 6818.66,7157.41 "/>
   <polygon class="fil2" points="6599.32,6997.71 6759.26,6997.71 6759.26,7157.41 6599.32,7157.41 "/>
   <polygon class="fil36" points="7476.73,7207.57 7636.67,7207.57 7636.67,7367.28 7476.73,7367.28 "/>
   <polygon class="fil16" points="7257.37,7207.57 7417.33,7207.57 7417.33,7367.28 7257.37,7367.28 "/>
   <polygon class="fil39" points="6818.66,7207.57 6978.63,7207.57 6978.63,7367.28 6818.66,7367.28 "/>
   <polygon class="fil59" points="6599.32,7207.57 6759.26,7207.57 6759.26,7367.28 6599.32,7367.28 "/>
   <polygon class="fil38" points="7476.73,7417.47 7636.67,7417.47 7636.67,7577.14 7476.73,7577.14 "/>
   <polygon class="fil62" points="7257.37,7417.47 7417.33,7417.47 7417.33,7577.14 7257.37,7577.14 "/>
   <polygon class="fil59" points="7038.03,7417.47 7197.97,7417.47 7197.97,7577.14 7038.03,7577.14 "/>
   <polygon class="fil29" points="6818.66,7417.47 6978.63,7417.47 6978.63,7577.14 6818.66,7577.14 "/>
   <polygon class="fil10" points="5616.79,3844.96 5776.73,3844.96 5776.73,4004.63 5616.79,4004.63 "/>
   <polygon class="fil65" points="5406.58,3844.96 5566.52,3844.96 5566.52,4004.63 5406.58,4004.63 "/>
   <polygon class="fil66" points="5191.79,3844.96 5351.73,3844.96 5351.73,4004.63 5191.79,4004.63 "/>
   <polygon class="fil8" points="4977,3844.96 5136.94,3844.96 5136.94,4004.63 4977,4004.63 "/>
   <polygon class="fil58" points="4762.21,3844.96 4922.18,3844.96 4922.18,4004.63 4762.21,4004.63 "/>
   <polygon class="fil67" points="4552,3844.96 4711.94,3844.96 4711.94,4004.63 4552,4004.63 "/>
   <polygon class="fil56" points="4337.21,3844.96 4497.15,3844.96 4497.15,4004.63 4337.21,4004.63 "/>
   <polygon class="fil32" points="4122.43,3844.96 4282.39,3844.96 4282.39,4004.63 4122.43,4004.63 "/>
   <polygon class="fil68" points="3912.21,3844.96 4072.15,3844.96 4072.15,4004.63 3912.21,4004.63 "/>
   <polygon class="fil0" points="3697.42,3844.96 3857.39,3844.96 3857.39,4004.63 3697.42,4004.63 "/>
   <polygon class="fil45" points="3482.66,3844.96 3642.6,3844.96 3642.6,4004.63 3482.66,4004.63 "/>
   <polygon class="fil69" points="5616.79,4054.83 5776.73,4054.83 5776.73,4214.53 5616.79,4214.53 "/>
   <polygon class="fil40" points="5406.58,4054.83 5566.52,4054.83 5566.52,4214.53 5406.58,4214.53 "/>
   <polygon class="fil70" points="5191.79,4054.83 5351.73,4054.83 5351.73,4214.53 5191.79,4214.53 "/>
   <polygon class="fil66" points="4977,4054.83 5136.94,4054.83 5136.94,4214.53 4977,4214.53 "/>
   <polygon class="fil2" points="4762.21,4054.83 4922.18,4054.83 4922.18,4214.53 4762.21,4214.53 "/>
   <polygon class="fil36" points="4552,4054.83 4711.94,4054.83 4711.94,4214.53 4552,4214.53 "/>
   <polygon class="fil69" points="4337.21,4054.83 4497.15,4054.83 4497.15,4214.53 4337.21,4214.53 "/>
   <polygon class="fil71" points="4122.43,4054.83 4282.39,4054.83 4282.39,4214.53 4122.43,4214.53 "/>
   <polygon class="fil12" points="3912.21,4054.83 4072.15,4054.83 4072.15,4214.53 3912.21,4214.53 "/>
   <polygon class="fil72" points="3697.42,4054.83 3857.39,4054.83 3857.39,4214.53 3697.42,4214.53 "/>
   <polygon class="fil67" points="3482.66,4054.83 3642.6,4054.83 3642.6,4214.53 3482.66,4214.53 "/>
   <polygon class="fil47" points="5616.79,4264.72 5776.73,4264.72 5776.73,4424.4 5616.79,4424.4 "/>
   <polygon class="fil0" points="5406.58,4264.72 5566.52,4264.72 5566.52,4424.4 5406.58,4424.4 "/>
   <polygon class="fil0" points="5191.79,4264.72 5351.73,4264.72 5351.73,4424.4 5191.79,4424.4 "/>
   <polygon class="fil71" points="4977,4264.72 5136.94,4264.72 5136.94,4424.4 4977,4424.4 "/>
   <polygon class="fil58" points="4762.21,4264.72 4922.18,4264.72 4922.18,4424.4 4762.21,4424.4 "/>
   <polygon class="fil3" points="4552,4264.72 4711.94,4264.72 4711.94,4424.4 4552,4424.4 "/>
   <polygon class="fil73" points="4337.21,4264.72 4497.15,4264.72 4497.15,4424.4 4337.21,4424.4 "/>
   <polygon class="fil74" points="4122.43,4264.72 4282.39,4264.72 4282.39,4424.4 4122.43,4424.4 "/>
   <polygon class="fil17" points="3912.21,4264.72 4072.15,4264.72 4072.15,4424.4 3912.21,4424.4 "/>
   <polygon class="fil31" points="3697.42,4264.72 3857.39,4264.72 3857.39,4424.4 3697.42,4424.4 "/>
   <polygon class="fil8" points="3482.66,4264.72 3642.6,4264.72 3642.6,4424.4 3482.66,4424.4 "/>
   <polygon class="fil75" points="5616.79,4474.59 5776.73,4474.59 5776.73,4634.29 5616.79,4634.29 "/>
   <polygon class="fil17" points="5406.58,4474.59 5566.52,4474.59 5566.52,4634.29 5406.58,4634.29 "/>
   <polygon class="fil76" points="5191.79,4474.59 5351.73,4474.59 5351.73,4634.29 5191.79,4634.29 "/>
   <polygon class="fil18" points="4977,4474.59 5136.94,4474.59 5136.94,4634.29 4977,4634.29 "/>
   <polygon class="fil4" points="4762.21,4474.59 4922.18,4474.59 4922.18,4634.29 4762.21,4634.29 "/>
   <polygon class="fil15" points="4552,4474.59 4711.94,4474.59 4711.94,4634.29 4552,4634.29 "/>
   <polygon class="fil54" points="4337.21,4474.59 4497.15,4474.59 4497.15,4634.29 4337.21,4634.29 "/>
   <polygon class="fil4" points="4122.43,4474.59 4282.39,4474.59 4282.39,4634.29 4122.43,4634.29 "/>
   <polygon class="fil44" points="3912.21,4474.59 4072.15,4474.59 4072.15,4634.29 3912.21,4634.29 "/>
   <polygon class="fil77" points="3697.42,4474.59 3857.39,4474.59 3857.39,4634.29 3697.42,4634.29 "/>
   <polygon class="fil78" points="3482.66,4474.59 3642.6,4474.59 3642.6,4634.29 3482.66,4634.29 "/>
   <polygon class="fil57" points="5616.79,4684.46 5776.73,4684.46 5776.73,4844.16 5616.79,4844.16 "/>
   <polygon class="fil5" points="5406.58,4684.46 5566.52,4684.46 5566.52,4844.16 5406.58,4844.16 "/>
   <polygon class="fil43" points="5191.79,4684.46 5351.73,4684.46 5351.73,4844.16 5191.79,4844.16 "/>
   <polygon class="fil52" points="4977,4684.46 5136.94,4684.46 5136.94,4844.16 4977,4844.16 "/>
   <polygon class="fil79" points="4762.21,4684.46 4922.18,4684.46 4922.18,4844.16 4762.21,4844.16 "/>
   <polygon class="fil73" points="4552,4684.46 4711.94,4684.46 4711.94,4844.16 4552,4844.16 "/>
   <polygon class="fil80" points="4337.21,4684.46 4497.15,4684.46 4497.15,4844.16 4337.21,4844.16 "/>
   <polygon class="fil79" points="4122.43,4684.46 4282.39,4684.46 4282.39,4844.16 4122.43,4844.16 "/>
   <polygon class="fil42" points="3912.21,4684.46 4072.15,4684.46 4072.15,4844.16 3912.21,4844.16 "/>
   <polygon class="fil81" points="3697.42,4684.46 3857.39,4684.46 3857.39,4844.16 3697.42,4844.16 "/>
   <polygon class="fil70" points="3482.66,4684.46 3642.6,4684.46 3642.6,4844.16 3482.66,4844.16 "/>
   <polygon class="fil73" points="5616.79,4894.35 5776.73,4894.35 5776.73,5054.05 5616.79,5054.05 "/>
   <polygon class="fil37" points="5406.58,4894.35 5566.52,4894.35 5566.52,5054.05 5406.58,5054.05 "/>
   <polygon class="fil12" points="5191.79,4894.35 5351.73,4894.35 5351.73,5054.05 5191.79,5054.05 "/>
   <polygon class="fil17" points="4977,4894.35 5136.94,4894.35 5136.94,5054.05 4977,5054.05 "/>
   <polygon class="fil81" points="4762.21,4894.35 4922.18,4894.35 4922.18,5054.05 4762.21,5054.05 "/>
   <polygon class="fil82" points="4552,4894.35 4711.94,4894.35 4711.94,5054.05 4552,5054.05 "/>
   <polygon class="fil49" points="4337.21,4894.35 4497.15,4894.35 4497.15,5054.05 4337.21,5054.05 "/>
   <polygon class="fil8" points="4122.43,4894.35 4282.39,4894.35 4282.39,5054.05 4122.43,5054.05 "/>
   <polygon class="fil6" points="3912.21,4894.35 4072.15,4894.35 4072.15,5054.05 3912.21,5054.05 "/>
   <polygon class="fil39" points="3697.42,4894.35 3857.39,4894.35 3857.39,5054.05 3697.42,5054.05 "/>
   <polygon class="fil6" points="3482.66,4894.35 3642.6,4894.35 3642.6,5054.05 3482.66,5054.05 "/>
   <polygon class="fil69" points="5616.79,5108.79 5776.73,5108.79 5776.73,5268.47 5616.79,5268.47 "/>
   <polygon class="fil66" points="5406.58,5108.79 5566.52,5108.79 5566.52,5268.47 5406.58,5268.47 "/>
   <polygon class="fil83" points="5191.79,5108.79 5351.73,5108.79 5351.73,5268.47 5191.79,5268.47 "/>
   <polygon class="fil44" points="4977,5108.79 5136.94,5108.79 5136.94,5268.47 4977,5268.47 "/>
   <polygon class="fil2" points="4762.21,5108.79 4922.18,5108.79 4922.18,5268.47 4762.21,5268.47 "/>
   <polygon class="fil54" points="4552,5108.79 4711.94,5108.79 4711.94,5268.47 4552,5268.47 "/>
   <polygon class="fil84" points="4337.21,5108.79 4497.15,5108.79 4497.15,5268.47 4337.21,5268.47 "/>
   <polygon class="fil26" points="4122.43,5108.79 4282.39,5108.79 4282.39,5268.47 4122.43,5268.47 "/>
   <polygon class="fil69" points="3912.21,5108.79 4072.15,5108.79 4072.15,5268.47 3912.21,5268.47 "/>
   <polygon class="fil12" points="3697.42,5108.79 3857.39,5108.79 3857.39,5268.47 3697.42,5268.47 "/>
   <polygon class="fil44" points="3482.66,5108.79 3642.6,5108.79 3642.6,5268.47 3482.66,5268.47 "/>
   <polygon class="fil8" points="5616.79,5318.66 5776.73,5318.66 5776.73,5478.36 5616.79,5478.36 "/>
   <polygon class="fil68" points="5406.58,5318.66 5566.52,5318.66 5566.52,5478.36 5406.58,5478.36 "/>
   <polygon class="fil53" points="5191.79,5318.66 5351.73,5318.66 5351.73,5478.36 5191.79,5478.36 "/>
   <polygon class="fil85" points="4977,5318.66 5136.94,5318.66 5136.94,5478.36 4977,5478.36 "/>
   <polygon class="fil63" points="4762.21,5318.66 4922.18,5318.66 4922.18,5478.36 4762.21,5478.36 "/>
   <polygon class="fil33" points="4552,5318.66 4711.94,5318.66 4711.94,5478.36 4552,5478.36 "/>
   <polygon class="fil70" points="4337.21,5318.66 4497.15,5318.66 4497.15,5478.36 4337.21,5478.36 "/>
   <polygon class="fil72" points="4122.43,5318.66 4282.39,5318.66 4282.39,5478.36 4122.43,5478.36 "/>
   <polygon class="fil64" points="3912.21,5318.66 4072.15,5318.66 4072.15,5478.36 3912.21,5478.36 "/>
   <polygon class="fil84" points="3697.42,5318.66 3857.39,5318.66 3857.39,5478.36 3697.42,5478.36 "/>
   <polygon class="fil80" points="3482.66,5318.66 3642.6,5318.66 3642.6,5478.36 3482.66,5478.36 "/>
   <polygon class="fil25" points="5616.79,5528.56 5776.73,5528.56 5776.73,5688.23 5616.79,5688.23 "/>
   <polygon class="fil86" points="5406.58,5528.56 5566.52,5528.56 5566.52,5688.23 5406.58,5688.23 "/>
   <polygon class="fil63" points="5191.79,5528.56 5351.73,5528.56 5351.73,5688.23 5191.79,5688.23 "/>
   <polygon class="fil61" points="4977,5528.56 5136.94,5528.56 5136.94,5688.23 4977,5688.23 "/>
   <polygon class="fil12" points="4762.21,5528.56 4922.18,5528.56 4922.18,5688.23 4762.21,5688.23 "/>
   <polygon class="fil31" points="4552,5528.56 4711.94,5528.56 4711.94,5688.23 4552,5688.23 "/>
   <polygon class="fil87" points="4337.21,5528.56 4497.15,5528.56 4497.15,5688.23 4337.21,5688.23 "/>
   <polygon class="fil88" points="4122.43,5528.56 4282.39,5528.56 4282.39,5688.23 4122.43,5688.23 "/>
   <polygon class="fil37" points="3912.21,5528.56 4072.15,5528.56 4072.15,5688.23 3912.21,5688.23 "/>
   <polygon class="fil85" points="3697.42,5528.56 3857.39,5528.56 3857.39,5688.23 3697.42,5688.23 "/>
   <polygon class="fil87" points="3482.66,5528.56 3642.6,5528.56 3642.6,5688.23 3482.66,5688.23 "/>
   <polygon class="fil89" points="5616.79,5738.42 5776.73,5738.42 5776.73,5898.13 5616.79,5898.13 "/>
   <polygon class="fil79" points="5406.58,5738.42 5566.52,5738.42 5566.52,5898.13 5406.58,5898.13 "/>
   <polygon class="fil17" points="5191.79,5738.42 5351.73,5738.42 5351.73,5898.13 5191.79,5898.13 "/>
   <polygon class="fil79" points="4977,5738.42 5136.94,5738.42 5136.94,5898.13 4977,5898.13 "/>
   <polygon class="fil88" points="4762.21,5738.42 4922.18,5738.42 4922.18,5898.13 4762.21,5898.13 "/>
   <polygon class="fil35" points="4552,5738.42 4711.94,5738.42 4711.94,5898.13 4552,5898.13 "/>
   <polygon class="fil40" points="4337.21,5738.42 4497.15,5738.42 4497.15,5898.13 4337.21,5898.13 "/>
   <polygon class="fil77" points="4122.43,5738.42 4282.39,5738.42 4282.39,5898.13 4122.43,5898.13 "/>
   <polygon class="fil21" points="3912.21,5738.42 4072.15,5738.42 4072.15,5898.13 3912.21,5898.13 "/>
   <polygon class="fil1" points="3697.42,5738.42 3857.39,5738.42 3857.39,5898.13 3697.42,5898.13 "/>
   <polygon class="fil31" points="3482.66,5738.42 3642.6,5738.42 3642.6,5898.13 3482.66,5898.13 "/>
   <polygon class="fil90" points="5616.79,5948.32 5776.73,5948.32 5776.73,6107.99 5616.79,6107.99 "/>
   <polygon class="fil91" points="5406.58,5948.32 5566.52,5948.32 5566.52,6107.99 5406.58,6107.99 "/>
   <polygon class="fil92" points="5191.79,5948.32 5351.73,5948.32 5351.73,6107.99 5191.79,6107.99 "/>
   <polygon class="fil73" points="4977,5948.32 5136.94,5948.32 5136.94,6107.99 4977,6107.99 "/>
   <polygon class="fil88" points="4762.21,5948.32 4922.18,5948.32 4922.18,6107.99 4762.21,6107.99 "/>
   <polygon class="fil4" points="4552,5948.32 4711.94,5948.32 4711.94,6107.99 4552,6107.99 "/>
   <polygon class="fil2" points="4337.21,5948.32 4497.15,5948.32 4497.15,6107.99 4337.21,6107.99 "/>
   <polygon class="fil38" points="4122.43,5948.32 4282.39,5948.32 4282.39,6107.99 4122.43,6107.99 "/>
   <polygon class="fil35" points="3912.21,5948.32 4072.15,5948.32 4072.15,6107.99 3912.21,6107.99 "/>
   <polygon class="fil24" points="3697.42,5948.32 3857.39,5948.32 3857.39,6107.99 3697.42,6107.99 "/>
   <polygon class="fil9" points="3482.66,5948.32 3642.6,5948.32 3642.6,6107.99 3482.66,6107.99 "/>
   <polygon class="fil92" points="5616.79,6158.18 5776.73,6158.18 5776.73,6317.89 5616.79,6317.89 "/>
   <polygon class="fil15" points="5406.58,6158.18 5566.52,6158.18 5566.52,6317.89 5406.58,6317.89 "/>
   <polygon class="fil76" points="5191.79,6158.18 5351.73,6158.18 5351.73,6317.89 5191.79,6317.89 "/>
   <polygon class="fil47" points="4977,6158.18 5136.94,6158.18 5136.94,6317.89 4977,6317.89 "/>
   <polygon class="fil67" points="4762.21,6158.18 4922.18,6158.18 4922.18,6317.89 4762.21,6317.89 "/>
   <polygon class="fil27" points="4552,6158.18 4711.94,6158.18 4711.94,6317.89 4552,6317.89 "/>
   <polygon class="fil20" points="4337.21,6158.18 4497.15,6158.18 4497.15,6317.89 4337.21,6317.89 "/>
   <polygon class="fil37" points="4122.43,6158.18 4282.39,6158.18 4282.39,6317.89 4122.43,6317.89 "/>
   <polygon class="fil88" points="3912.21,6158.18 4072.15,6158.18 4072.15,6317.89 3912.21,6317.89 "/>
   <polygon class="fil29" points="3697.42,6158.18 3857.39,6158.18 3857.39,6317.89 3697.42,6317.89 "/>
   <polygon class="fil35" points="3482.66,6158.18 3642.6,6158.18 3642.6,6317.89 3482.66,6317.89 "/>
   <polygon class="fil85" points="5616.79,6368.08 5776.73,6368.08 5776.73,6527.75 5616.79,6527.75 "/>
   <polygon class="fil80" points="5406.58,6368.08 5566.52,6368.08 5566.52,6527.75 5406.58,6527.75 "/>
   <polygon class="fil42" points="5191.79,6368.08 5351.73,6368.08 5351.73,6527.75 5191.79,6527.75 "/>
   <polygon class="fil18" points="4977,6368.08 5136.94,6368.08 5136.94,6527.75 4977,6527.75 "/>
   <polygon class="fil56" points="4762.21,6368.08 4922.18,6368.08 4922.18,6527.75 4762.21,6527.75 "/>
   <polygon class="fil93" points="4552,6368.08 4711.94,6368.08 4711.94,6527.75 4552,6527.75 "/>
   <polygon class="fil77" points="4337.21,6368.08 4497.15,6368.08 4497.15,6527.75 4337.21,6527.75 "/>
   <polygon class="fil90" points="4122.43,6368.08 4282.39,6368.08 4282.39,6527.75 4122.43,6527.75 "/>
   <polygon class="fil47" points="3912.21,6368.08 4072.15,6368.08 4072.15,6527.75 3912.21,6527.75 "/>
   <polygon class="fil85" points="3697.42,6368.08 3857.39,6368.08 3857.39,6527.75 3697.42,6527.75 "/>
   <polygon class="fil77" points="3482.66,6368.08 3642.6,6368.08 3642.6,6527.75 3482.66,6527.75 "/>
   <polygon class="fil16" points="5616.79,6577.95 5776.73,6577.95 5776.73,6737.65 5616.79,6737.65 "/>
   <polygon class="fil75" points="5406.58,6577.95 5566.52,6577.95 5566.52,6737.65 5406.58,6737.65 "/>
   <polygon class="fil82" points="5191.79,6577.95 5351.73,6577.95 5351.73,6737.65 5191.79,6737.65 "/>
   <polygon class="fil47" points="4977,6577.95 5136.94,6577.95 5136.94,6737.65 4977,6737.65 "/>
   <polygon class="fil57" points="4762.21,6577.95 4922.18,6577.95 4922.18,6737.65 4762.21,6737.65 "/>
   <polygon class="fil19" points="4552,6577.95 4711.94,6577.95 4711.94,6737.65 4552,6737.65 "/>
   <polygon class="fil53" points="4337.21,6577.95 4497.15,6577.95 4497.15,6737.65 4337.21,6737.65 "/>
   <polygon class="fil43" points="4122.43,6577.95 4282.39,6577.95 4282.39,6737.65 4122.43,6737.65 "/>
   <polygon class="fil31" points="3912.21,6577.95 4072.15,6577.95 4072.15,6737.65 3912.21,6737.65 "/>
   <polygon class="fil40" points="3697.42,6577.95 3857.39,6577.95 3857.39,6737.65 3697.42,6737.65 "/>
   <polygon class="fil81" points="3482.66,6577.95 3642.6,6577.95 3642.6,6737.65 3482.66,6737.65 "/>
   <polygon class="fil10" points="5616.79,6787.81 5776.73,6787.81 5776.73,6947.52 5616.79,6947.52 "/>
   <polygon class="fil78" points="5406.58,6787.81 5566.52,6787.81 5566.52,6947.52 5406.58,6947.52 "/>
   <polygon class="fil74" points="5191.79,6787.81 5351.73,6787.81 5351.73,6947.52 5191.79,6947.52 "/>
   <polygon class="fil1" points="4977,6787.81 5136.94,6787.81 5136.94,6947.52 4977,6947.52 "/>
   <polygon class="fil75" points="4762.21,6787.81 4922.18,6787.81 4922.18,6947.52 4762.21,6947.52 "/>
   <polygon class="fil37" points="4552,6787.81 4711.94,6787.81 4711.94,6947.52 4552,6947.52 "/>
   <polygon class="fil84" points="4337.21,6787.81 4497.15,6787.81 4497.15,6947.52 4337.21,6947.52 "/>
   <polygon class="fil66" points="4122.43,6787.81 4282.39,6787.81 4282.39,6947.52 4122.43,6947.52 "/>
   <polygon class="fil34" points="3912.21,6787.81 4072.15,6787.81 4072.15,6947.52 3912.21,6947.52 "/>
   <polygon class="fil22" points="3697.42,6787.81 3857.39,6787.81 3857.39,6947.52 3697.42,6947.52 "/>
   <polygon class="fil74" points="3482.66,6787.81 3642.6,6787.81 3642.6,6947.52 3482.66,6947.52 "/>
   <polygon class="fil79" points="5616.79,6997.71 5776.73,6997.71 5776.73,7157.41 5616.79,7157.41 "/>
   <polygon class="fil93" points="5406.58,6997.71 5566.52,6997.71 5566.52,7157.41 5406.58,7157.41 "/>
   <polygon class="fil27" points="5191.79,6997.71 5351.73,6997.71 5351.73,7157.41 5191.79,7157.41 "/>
   <polygon class="fil4" points="4977,6997.71 5136.94,6997.71 5136.94,7157.41 4977,7157.41 "/>
   <polygon class="fil69" points="4762.21,6997.71 4922.18,6997.71 4922.18,7157.41 4762.21,7157.41 "/>
   <polygon class="fil86" points="4552,6997.71 4711.94,6997.71 4711.94,7157.41 4552,7157.41 "/>
   <polygon class="fil20" points="4337.21,6997.71 4497.15,6997.71 4497.15,7157.41 4337.21,7157.41 "/>
   <polygon class="fil28" points="4122.43,6997.71 4282.39,6997.71 4282.39,7157.41 4122.43,7157.41 "/>
   <polygon class="fil92" points="3912.21,6997.71 4072.15,6997.71 4072.15,7157.41 3912.21,7157.41 "/>
   <polygon class="fil52" points="3697.42,6997.71 3857.39,6997.71 3857.39,7157.41 3697.42,7157.41 "/>
   <polygon class="fil60" points="3482.66,6997.71 3642.6,6997.71 3642.6,7157.41 3482.66,7157.41 "/>
   <polygon class="fil49" points="5616.79,7207.57 5776.73,7207.57 5776.73,7367.28 5616.79,7367.28 "/>
   <polygon class="fil86" points="5406.58,7207.57 5566.52,7207.57 5566.52,7367.28 5406.58,7367.28 "/>
   <polygon class="fil16" points="5191.79,7207.57 5351.73,7207.57 5351.73,7367.28 5191.79,7367.28 "/>
   <polygon class="fil87" points="4977,7207.57 5136.94,7207.57 5136.94,7367.28 4977,7367.28 "/>
   <polygon class="fil12" points="4762.21,7207.57 4922.18,7207.57 4922.18,7367.28 4762.21,7367.28 "/>
   <polygon class="fil1" points="4552,7207.57 4711.94,7207.57 4711.94,7367.28 4552,7367.28 "/>
   <polygon class="fil66" points="4337.21,7207.57 4497.15,7207.57 4497.15,7367.28 4337.21,7367.28 "/>
   <polygon class="fil80" points="4122.43,7207.57 4282.39,7207.57 4282.39,7367.28 4122.43,7367.28 "/>
   <polygon class="fil84" points="3912.21,7207.57 4072.15,7207.57 4072.15,7367.28 3912.21,7367.28 "/>
   <polygon class="fil41" points="3697.42,7207.57 3857.39,7207.57 3857.39,7367.28 3697.42,7367.28 "/>
   <polygon class="fil23" points="3482.66,7207.57 3642.6,7207.57 3642.6,7367.28 3482.66,7367.28 "/>
   <polygon class="fil55" points="5616.79,7417.47 5776.73,7417.47 5776.73,7577.14 5616.79,7577.14 "/>
   <polygon class="fil6" points="5406.58,7417.47 5566.52,7417.47 5566.52,7577.14 5406.58,7577.14 "/>
   <polygon class="fil59" points="5191.79,7417.47 5351.73,7417.47 5351.73,7577.14 5191.79,7577.14 "/>
   <polygon class="fil17" points="4977,7417.47 5136.94,7417.47 5136.94,7577.14 4977,7577.14 "/>
   <polygon class="fil20" points="4762.21,7417.47 4922.18,7417.47 4922.18,7577.14 4762.21,7577.14 "/>
   <polygon class="fil78" points="4552,7417.47 4711.94,7417.47 4711.94,7577.14 4552,7577.14 "/>
   <polygon class="fil49" points="4337.21,7417.47 4497.15,7417.47 4497.15,7577.14 4337.21,7577.14 "/>
   <polygon class="fil92" points="4122.43,7417.47 4282.39,7417.47 4282.39,7577.14 4122.43,7577.14 "/>
   <polygon class="fil5" points="3912.21,7417.47 4072.15,7417.47 4072.15,7577.14 3912.21,7577.14 "/>
   <polygon class="fil88" points="3697.42,7417.47 3857.39,7417.47 3857.39,7577.14 3697.42,7577.14 "/>
   <polygon class="fil0" points="3482.66,7417.47 3642.6,7417.47 3642.6,7577.14 3482.66,7577.14 "/>
   <polygon class="fil0" points="8317.61,2818.38 9825.65,2818.38 9825.65,7536.11 8317.61,7536.11 "/>
   <polygon class="fil0" points="9140.17,2581.12 9825.65,2581.12 9825.65,2845.76 9140.17,2845.76 "/>
   <polygon class="fil0" points="9428.09,2426 9825.65,2426 9825.65,2581.12 9428.09,2581.12 "/>
   <polygon class="fil33" points="8952.82,3151.46 9199.59,3151.46 9199.59,3397.84 8952.82,3397.84 "/>
   <polygon class="fil11" points="8952.82,3758.28 9199.59,3758.28 9199.59,4004.66 8952.82,4004.66 "/>
   <polygon class="fil3" points="8952.82,4967.35 9199.59,4967.35 9199.59,5213.73 8952.82,5213.73 "/>
   <polygon class="fil21" points="8952.82,5569.62 9199.59,5569.62 9199.59,5816 8952.82,5816 "/>
   <polygon class="fil37" points="8952.82,6171.89 9199.59,6171.89 9199.59,6418.27 8952.82,6418.27 "/>
   <polygon class="fil0" points="8952.82,6778.71 9199.59,6778.71 9199.59,7025.09 8952.82,7025.09 "/>
   <polygon class="fil0" points="9437.22,5446.43 10849.32,5446.43 10849.32,5861.61 9437.22,5861.61 "/>
   <polygon class="fil0" points="8733.45,5446.43 9437.22,5446.43 9437.22,5861.61 8733.45,5861.61 "/>
   <polygon class="fil0" points="10849.32,5446.43 10410.59,5236.56 9437.22,5446.43 "/>
   <polygon class="fil0" points="10410.59,5236.56 9437.22,5446.43 8733.45,5446.43 "/>
   <polygon class="fil0" points="9108.18,5738.42 11173.78,5738.42 11173.78,7627.34 9108.18,7627.34 "/>
   <polygon class="fil0" points="8422.7,5738.42 9108.18,5738.42 9108.18,7627.34 8422.7,7627.34 "/>
   <polygon class="fil79" points="8582.64,5870.74 8952.82,5870.74 8952.82,6007.64 8582.64,6007.64 "/>
   <polygon class="fil94" points="8582.64,6121.7 8952.82,6121.7 8952.82,6258.57 8582.64,6258.57 "/>
   <polygon class="fil67" points="8582.64,6372.63 8952.82,6372.63 8952.82,6509.52 8582.64,6509.52 "/>
   <polygon class="fil23" points="8582.64,6628.14 8952.82,6628.14 8952.82,6765.01 8582.64,6765.01 "/>
   <polygon class="fil92" points="8582.64,7130.03 8952.82,7130.03 8952.82,7266.89 8582.64,7266.89 "/>
   <polygon class="fil5" points="10474.57,5870.74 10844.75,5870.74 10844.75,6007.64 10474.57,6007.64 "/>
   <polygon class="fil59" points="9958.18,5870.74 10328.36,5870.74 10328.36,6007.64 9958.18,6007.64 "/>
   <polygon class="fil57" points="9437.22,5870.74 9807.37,5870.74 9807.37,6007.64 9437.22,6007.64 "/>
   <polygon class="fil1" points="10474.57,6121.7 10844.75,6121.7 10844.75,6258.57 10474.57,6258.57 "/>
   <polygon class="fil64" points="9958.18,6121.7 10328.36,6121.7 10328.36,6258.57 9958.18,6258.57 "/>
   <polygon class="fil36" points="9437.22,6121.7 9807.37,6121.7 9807.37,6258.57 9437.22,6258.57 "/>
   <polygon class="fil27" points="10474.57,6372.63 10844.75,6372.63 10844.75,6509.52 10474.57,6509.52 "/>
   <polygon class="fil29" points="9958.18,6372.63 10328.36,6372.63 10328.36,6509.52 9958.18,6509.52 "/>
   <polygon class="fil4" points="9437.22,6372.63 9807.37,6372.63 9807.37,6509.52 9437.22,6509.52 "/>
   <polygon class="fil51" points="10474.57,6628.14 10844.75,6628.14 10844.75,6765.01 10474.57,6765.01 "/>
   <polygon class="fil18" points="9958.18,6628.14 10328.36,6628.14 10328.36,6765.01 9958.18,6765.01 "/>
   <polygon class="fil6" points="9437.22,6628.14 9807.37,6628.14 9807.37,6765.01 9437.22,6765.01 "/>
   <polygon class="fil55" points="10474.57,6879.09 10844.75,6879.09 10844.75,7015.96 10474.57,7015.96 "/>
   <polygon class="fil63" points="9958.18,6879.09 10328.36,6879.09 10328.36,7015.96 9958.18,7015.96 "/>
   <polygon class="fil62" points="9437.22,6879.09 9807.37,6879.09 9807.37,7015.96 9437.22,7015.96 "/>
   <polygon class="fil39" points="10474.57,7130.03 10844.75,7130.03 10844.75,7266.92 10474.57,7266.92 "/>
   <polygon class="fil11" points="9958.18,7130.03 10328.36,7130.03 10328.36,7266.92 9958.18,7266.92 "/>
   <polygon class="fil66" points="9437.22,7130.03 9807.37,7130.03 9807.37,7266.92 9437.22,7266.92 "/>
   <polygon class="fil0" points="19157.37,3849.54 20436.95,3849.54 20436.95,7787.04 19157.37,7787.04 "/>
   <polygon class="fil0" points="17699.57,3849.54 19152.8,3849.54 19152.8,7787.04 17699.57,7787.04 "/>
   <polygon class="fil0" points="19157.37,4182.59 20436.95,4182.59 20436.95,4251.04 19157.37,4251.04 "/>
   <polygon class="fil0" points="17699.57,4182.59 19152.8,4182.59 19152.8,4251.04 17699.57,4251.04 "/>
   <polygon class="fil67" points="19820,4328.62 19957.1,4328.62 19957.1,4465.49 19820,4465.49 "/>
   <polygon class="fil33" points="19632.64,4328.62 19769.75,4328.62 19769.75,4465.49 19632.64,4465.49 "/>
   <polygon class="fil2" points="19257.91,4328.62 19395,4328.62 19395,4465.49 19257.91,4465.49 "/>
   <polygon class="fil37" points="19820,4515.68 19957.1,4515.68 19957.1,4652.55 19820,4652.55 "/>
   <polygon class="fil34" points="19632.64,4515.68 19769.75,4515.68 19769.75,4652.55 19632.64,4652.55 "/>
   <polygon class="fil37" points="19445.27,4515.68 19582.37,4515.68 19582.37,4652.55 19445.27,4652.55 "/>
   <polygon class="fil67" points="19257.91,4515.68 19395,4515.68 19395,4652.55 19257.91,4652.55 "/>
   <polygon class="fil14" points="19820,4702.74 19957.1,4702.74 19957.1,4839.61 19820,4839.61 "/>
   <polygon class="fil15" points="19632.64,4702.74 19769.75,4702.74 19769.75,4839.61 19632.64,4839.61 "/>
   <polygon class="fil58" points="19257.91,4702.74 19395,4702.74 19395,4839.61 19257.91,4839.61 "/>
   <polygon class="fil63" points="19820,4889.8 19957.1,4889.8 19957.1,5026.69 19820,5026.69 "/>
   <polygon class="fil62" points="19632.64,4889.8 19769.75,4889.8 19769.75,5026.69 19632.64,5026.69 "/>
   <polygon class="fil22" points="19445.27,4889.8 19582.37,4889.8 19582.37,5026.69 19445.27,5026.69 "/>
   <polygon class="fil22" points="19632.64,5076.86 19769.75,5076.86 19769.75,5213.75 19632.64,5213.75 "/>
   <polygon class="fil29" points="19445.27,5076.86 19582.37,5076.86 19582.37,5213.75 19445.27,5213.75 "/>
   <polygon class="fil62" points="19820,5263.95 19957.1,5263.95 19957.1,5400.81 19820,5400.81 "/>
   <polygon class="fil58" points="19632.64,5263.95 19769.75,5263.95 19769.75,5400.81 19632.64,5400.81 "/>
   <polygon class="fil61" points="19445.27,5263.95 19582.37,5263.95 19582.37,5400.81 19445.27,5400.81 "/>
   <polygon class="fil4" points="19820,5451.01 19957.1,5451.01 19957.1,5587.87 19820,5587.87 "/>
   <polygon class="fil36" points="19445.27,5451.01 19582.37,5451.01 19582.37,5587.87 19445.27,5587.87 "/>
   <polygon class="fil61" points="19820,5638.07 19957.1,5638.07 19957.1,5774.94 19820,5774.94 "/>
   <polygon class="fil29" points="19632.64,5638.07 19769.75,5638.07 19769.75,5774.94 19632.64,5774.94 "/>
   <polygon class="fil59" points="19445.27,5638.07 19582.37,5638.07 19582.37,5774.94 19445.27,5774.94 "/>
   <polygon class="fil10" points="19257.91,5638.07 19395,5638.07 19395,5774.94 19257.91,5774.94 "/>
   <polygon class="fil20" points="19257.91,5820.58 19395,5820.58 19395,5957.44 19257.91,5957.44 "/>
   <polygon class="fil2" points="19820,6007.64 19957.1,6007.64 19957.1,6144.53 19820,6144.53 "/>
   <polygon class="fil3" points="19445.27,6007.64 19582.37,6007.64 19582.37,6144.53 19445.27,6144.53 "/>
   <polygon class="fil51" points="19257.91,6007.64 19395,6007.64 19395,6144.53 19257.91,6144.53 "/>
   <polygon class="fil12" points="19632.64,6194.7 19769.75,6194.7 19769.75,6331.59 19632.64,6331.59 "/>
   <polygon class="fil40" points="19257.91,6194.7 19395,6194.7 19395,6331.59 19257.91,6331.59 "/>
   <polygon class="fil40" points="19632.64,6381.78 19769.75,6381.78 19769.75,6518.65 19632.64,6518.65 "/>
   <polygon class="fil63" points="19257.91,6381.78 19395,6381.78 19395,6518.65 19257.91,6518.65 "/>
   <polygon class="fil21" points="19632.64,6568.84 19769.75,6568.84 19769.75,6705.71 19632.64,6705.71 "/>
   <polygon class="fil60" points="19445.27,6568.84 19582.37,6568.84 19582.37,6705.71 19445.27,6705.71 "/>
   <polygon class="fil13" points="19257.91,6568.84 19395,6568.84 19395,6705.71 19257.91,6705.71 "/>
   <polygon class="fil15" points="19820,6755.9 19957.1,6755.9 19957.1,6892.77 19820,6892.77 "/>
   <polygon class="fil29" points="19632.64,6755.9 19769.75,6755.9 19769.75,6892.77 19632.64,6892.77 "/>
   <polygon class="fil21" points="19445.27,6755.9 19582.37,6755.9 19582.37,6892.77 19445.27,6892.77 "/>
   <polygon class="fil12" points="19257.91,6755.9 19395,6755.9 19395,6892.77 19257.91,6892.77 "/>
   <polygon class="fil38" points="19820,6942.96 19957.1,6942.96 19957.1,7079.86 19820,7079.86 "/>
   <polygon class="fil29" points="19632.64,6942.96 19769.75,6942.96 19769.75,7079.86 19632.64,7079.86 "/>
   <polygon class="fil10" points="19257.91,6942.96 19395,6942.96 19395,7079.86 19257.91,7079.86 "/>
   <polygon class="fil3" points="19820,7130.05 19957.1,7130.05 19957.1,7266.92 19820,7266.92 "/>
   <polygon class="fil62" points="19632.64,7130.05 19769.75,7130.05 19769.75,7266.92 19632.64,7266.92 "/>
   <polygon class="fil58" points="19257.91,7130.05 19395,7130.05 19395,7266.92 19257.91,7266.92 "/>
   <polygon class="fil39" points="19632.64,7317.11 19769.75,7317.11 19769.75,7453.98 19632.64,7453.98 "/>
   <polygon class="fil56" points="19445.27,7317.11 19582.37,7317.11 19582.37,7453.98 19445.27,7453.98 "/>
   <polygon class="fil6" points="19820,7504.17 19957.1,7504.17 19957.1,7641.04 19820,7641.04 "/>
   <polygon class="fil2" points="19632.64,7504.17 19769.75,7504.17 19769.75,7641.04 19632.64,7641.04 "/>
   <polygon class="fil59" points="19445.27,7504.17 19582.37,7504.17 19582.37,7641.04 19445.27,7641.04 "/>
   <polygon class="fil10" points="19257.91,7504.17 19395,7504.17 19395,7641.04 19257.91,7641.04 "/>
   <polygon class="fil22" points="19445.27,4328.62 19582.37,4328.62 19582.37,4465.49 19445.27,4465.49 "/>
   <polygon class="fil22" points="19445.27,4702.74 19582.37,4702.74 19582.37,4839.61 19445.27,4839.61 "/>
   <polygon class="fil60" points="19257.91,4889.8 19395,4889.8 19395,5026.69 19257.91,5026.69 "/>
   <polygon class="fil11" points="19820,5076.86 19957.1,5076.86 19957.1,5213.75 19820,5213.75 "/>
   <polygon class="fil2" points="19257.91,5076.86 19395,5076.86 19395,5213.75 19257.91,5213.75 "/>
   <polygon class="fil56" points="19632.64,5451.01 19769.75,5451.01 19769.75,5587.87 19632.64,5587.87 "/>
   <polygon class="fil57" points="19257.91,5451.01 19395,5451.01 19395,5587.87 19257.91,5587.87 "/>
   <polygon class="fil29" points="19820,5820.58 19957.1,5820.58 19957.1,5957.44 19820,5957.44 "/>
   <polygon class="fil29" points="19632.64,5820.58 19769.75,5820.58 19769.75,5957.44 19632.64,5957.44 "/>
   <polygon class="fil4" points="19445.27,5820.58 19582.37,5820.58 19582.37,5957.44 19445.27,5957.44 "/>
   <polygon class="fil72" points="19820,6194.7 19957.1,6194.7 19957.1,6331.59 19820,6331.59 "/>
   <polygon class="fil29" points="19445.27,6194.7 19582.37,6194.7 19582.37,6331.59 19445.27,6331.59 "/>
   <polygon class="fil3" points="19820,6381.78 19957.1,6381.78 19957.1,6518.65 19820,6518.65 "/>
   <polygon class="fil1" points="19445.27,6381.78 19582.37,6381.78 19582.37,6518.65 19445.27,6518.65 "/>
   <polygon class="fil19" points="19820,6568.84 19957.1,6568.84 19957.1,6705.71 19820,6705.71 "/>
   <polygon class="fil59" points="19445.27,6942.96 19582.37,6942.96 19582.37,7079.86 19445.27,7079.86 "/>
   <polygon class="fil59" points="19445.27,7130.05 19582.37,7130.05 19582.37,7266.92 19445.27,7266.92 "/>
   <polygon class="fil14" points="19257.91,7317.11 19395,7317.11 19395,7453.98 19257.91,7453.98 "/>
   <g>
    <polygon class="fil95" points="18878.61,4251.04 19020.27,4251.04 19020.27,7613.66 18878.61,7613.66 "/>
    <polygon class="fil95" points="18636.41,4251.04 18778.07,4251.04 18778.07,7613.66 18636.41,7613.66 "/>
    <polygon class="fil95" points="18389.63,4251.04 18531.29,4251.04 18531.29,7613.66 18389.63,7613.66 "/>
    <polygon class="fil95" points="18142.85,4251.04 18284.51,4251.04 18284.51,7613.66 18142.85,7613.66 "/>
    <polygon class="fil95" points="17896.08,4251.04 18037.74,4251.04 18037.74,7613.66 17896.08,7613.66 "/>
   </g>
   <polygon class="fil0" points="16968.4,7613.68 19810.87,7613.68 16968.4,5140.76 "/>
   <polygon class="fil0" points="17210.6,7175.67 18188.55,7175.67 18188.55,7723.17 17210.6,7723.17 "/>
   <polygon class="fil0" points="17283.73,7047.93 18115.44,7047.93 18115.44,7303.43 17283.73,7303.43 "/>
   <polygon class="fil0" points="17379.69,7125.47 18024.06,7125.47 17800.11,6751.35 17603.61,6751.35 "/>
   <polygon class="fil0" points="17471.08,7285.18 17928.07,7285.18 17928.07,7618.23 17471.08,7618.23 "/>
   <polygon class="fil0" points="17416.26,7417.5 17982.91,7417.5 17982.91,7485.92 17416.26,7485.92 "/>
   <path class="fil0" d="M12846.35 8074.48c-13.71,355.89 260.48,661.59 621.5,675.27 356.45,13.68 662.65,-264.63 676.36,-620.5 13.7,-355.89 -260.49,-661.59 -621.51,-675.27 -356.45,-13.68 -658.07,264.64 -676.35,620.5z"/>
   <path class="fil0" d="M12956.02 7896.55c-9.13,205.32 150.81,378.7 356.47,387.83 205.63,9.12 379.28,-150.58 388.43,-355.9 9.13,-205.31 -150.81,-378.69 -356.44,-387.82 -205.66,-9.13 -379.31,150.57 -388.46,355.89z"/>
   <path class="fil0" d="M19372.16 7403.79c0,86.7 73.11,159.7 159.94,159.7 86.84,0 159.94,-73 159.94,-159.7 0,-86.68 -73.1,-159.68 -159.94,-159.68 -86.83,0 -159.94,68.42 -159.94,159.68z"/>
   <path class="fil0" d="M19317.31 7563.49c0,118.61 95.97,214.45 214.79,214.45 118.83,0 214.79,-95.84 214.79,-214.45 0,-118.64 -95.96,-214.44 -214.79,-214.44 -118.82,0 -214.79,95.8 -214.79,214.44z"/>
   <path class="fil0" d="M19426.98 7266.92c0,59.32 45.72,109.51 105.12,109.51 59.4,0 105.12,-50.19 105.12,-109.51 0,-59.32 -45.72,-109.51 -105.12,-109.51 -59.4,0 -105.12,50.19 -105.12,109.51z"/>
   <path class="fil0" d="M19395 7403.79c0,50.19 41.14,91.25 91.41,91.25 50.27,0 91.39,-41.06 91.39,-91.25 0,-50.19 -41.12,-91.26 -91.39,-91.26 -50.27,0 -91.41,41.07 -91.41,91.26z"/>
   <path class="fil0" d="M19440.72 7280.6c0,36.51 31.98,68.45 68.52,68.45 36.57,0 68.56,-31.94 68.56,-68.45 0,-36.49 -31.99,-68.45 -68.56,-68.45 -36.54,-4.55 -68.52,27.39 -68.52,68.45z"/>
   <path class="fil0" d="M16324.03 7736.85c0,114.09 95.96,209.89 210.21,209.89 114.25,0 210.24,-95.8 210.24,-209.89 0,-114.06 -91.41,-209.87 -210.24,-209.87 -114.25,0 -210.21,95.81 -210.21,209.87z"/>
   <path class="fil0" d="M16397.16 7558.91c0,77.58 59.4,141.45 137.08,141.45 77.71,0 137.11,-63.87 137.11,-141.45 0,-77.54 -59.4,-141.44 -137.11,-141.44 -73.1,0 -137.08,63.9 -137.08,141.44z"/>
   <path class="fil0" d="M16415.44 7572.59c0,50.2 41.12,91.26 91.39,91.26 50.27,0 91.41,-41.06 91.41,-91.26 0,-50.19 -41.14,-91.25 -91.41,-91.25 -50.27,0 -91.39,41.06 -91.39,91.25z"/>
   <path class="fil0" d="M16607.37 7892c22.86,218.99 219.37,374.12 434.13,351.31 219.37,-22.8 374.76,-218.99 351.9,-433.44 -22.86,-219.02 -219.37,-374.15 -434.13,-351.31 -214.79,22.81 -374.76,214.42 -351.9,433.44z"/>
   <path class="fil0" d="M16707.91 7540.68c13.71,146 141.66,255.51 287.9,241.81 141.68,-13.68 246.77,-146 233.07,-292 -13.71,-145.99 -141.66,-255.5 -287.89,-241.83 -146.24,13.71 -246.78,146 -233.08,292.02z"/>
   <path class="fil0" d="M16744.48 7568.04c9.13,95.83 95.96,164.26 187.35,155.13 95.96,-9.13 164.52,-95.81 155.39,-187.06 -9.15,-95.81 -95.96,-164.26 -187.38,-155.13 -95.96,9.13 -164.52,95.81 -155.36,187.06z"/>
   <path class="fil0" d="M14537.22 7700.36c0,200.77 159.94,360.44 361.02,360.44 201.09,0 361.03,-159.67 361.03,-360.44 0,-200.76 -159.94,-360.44 -361.03,-360.44 -196.5,0 -361.02,159.68 -361.02,360.44z"/>
   <path class="fil0" d="M14413.82 8060.8c0,269.19 219.36,483.63 484.42,483.63 269.61,0 484.4,-218.99 484.4,-483.63 0,-269.18 -219.34,-483.63 -484.4,-483.63 -265.06,0 -484.42,219 -484.42,483.63z"/>
   <path class="fil0" d="M14665.17 7390.11c0,136.87 105.12,246.38 237.62,246.38 132.53,0 237.65,-109.51 237.65,-246.38 0,-136.89 -105.12,-246.38 -237.65,-246.38 -132.5,4.55 -237.62,114.06 -237.62,246.38z"/>
   <path class="fil0" d="M14592.04 7700.36c0,114.06 91.41,209.87 210.24,209.87 114.25,0 210.21,-91.23 210.21,-209.87 0,-114.06 -91.41,-209.87 -210.21,-209.87 -114.25,4.55 -210.24,95.81 -210.24,209.87z"/>
   <path class="fil0" d="M14697.16 7422.05c0,86.67 68.55,159.67 159.94,159.67 86.84,0 159.94,-68.42 159.94,-159.67 0,-86.71 -68.53,-155.13 -159.94,-155.13 -91.39,-4.58 -159.94,68.42 -159.94,155.13z"/>
   <path class="fil0" d="M15336.95 8001.48c0,255.51 210.21,465.38 466.12,465.38 255.93,0 466.14,-209.87 466.14,-465.38 0,-255.5 -210.21,-465.37 -466.14,-465.37 -255.91,0 -466.12,205.31 -466.12,465.37z"/>
   <path class="fil0" d="M15496.89 7599.98c0,173.38 137.11,314.83 306.18,314.83 169.09,0 306.2,-141.45 306.2,-314.83 0,-173.38 -137.11,-314.83 -306.2,-314.83 -169.07,0 -306.18,141.45 -306.18,314.83z"/>
   <path class="fil0" d="M15538.03 7641.04c0,114.06 91.39,200.77 205.64,200.77 114.24,0 205.66,-91.26 205.66,-200.77 0,-114.06 -91.42,-205.32 -205.66,-205.32 -114.25,0 -205.64,91.26 -205.64,205.32z"/>
   <path class="fil0" d="M14208.18 7654.72c0,54.77 41.12,95.83 91.39,95.83 50.27,0 91.41,-41.06 91.41,-95.83 0,-54.74 -41.14,-95.81 -91.41,-95.81 -50.27,0 -91.39,41.07 -91.39,95.81z"/>
   <path class="fil0" d="M12243.12 7540.68c0,177.94 141.69,319.38 319.91,319.38 178.22,0 319.88,-141.44 319.88,-319.38 0,-177.95 -141.66,-319.4 -319.88,-319.4 -178.22,0 -319.91,141.45 -319.91,319.4z"/>
   <path class="fil0" d="M12133.45 7860.06c0,237.26 191.93,428.89 429.58,428.89 237.62,0 429.55,-191.63 429.55,-428.89 0,-237.25 -191.93,-428.89 -429.55,-428.89 -237.65,0 -429.58,191.64 -429.58,428.89z"/>
   <path class="fil0" d="M12352.79 7266.92c0,118.64 95.99,219 210.24,219 114.25,0 210.21,-95.81 210.21,-219 0,-118.64 -95.96,-218.99 -210.21,-218.99 -114.25,0 -210.24,100.35 -210.24,218.99z"/>
   <path class="fil0" d="M12293.39 7540.68c0,100.36 82.26,182.49 182.8,182.49 100.55,0 182.8,-82.13 182.8,-182.49 0,-100.38 -82.25,-182.5 -182.8,-182.5 -100.54,0 -182.8,82.12 -182.8,182.5z"/>
   <path class="fil0" d="M12380.23 7294.31c0,77.54 63.98,141.41 141.66,141.41 77.68,0 141.66,-63.87 141.66,-141.41 0,-77.58 -63.98,-141.45 -141.66,-141.45 -77.68,0 -141.66,63.87 -141.66,141.45z"/>
   <path class="fil0" d="M11050.38 7942.19c0,237.25 191.93,428.86 429.58,428.86 237.62,0 429.58,-191.61 429.58,-428.86 0,-237.25 -191.96,-428.89 -429.58,-428.89 -237.65,4.55 -429.58,196.19 -429.58,428.89z"/>
   <path class="fil0" d="M11201.19 7577.17c0,159.7 127.96,292.02 278.77,292.02 155.39,0 283.34,-127.77 283.34,-292.02 0,-159.67 -127.95,-287.44 -283.34,-287.44 -155.36,0 -278.77,127.77 -278.77,287.44z"/>
   <path class="fil0" d="M11237.76 7613.68c0,104.94 82.26,187.06 187.35,187.06 105.12,0 187.38,-82.12 187.38,-187.06 0,-104.93 -82.26,-187.06 -187.38,-187.06 -105.09,0 -187.35,82.13 -187.35,187.06z"/>
   <path class="fil0" d="M4058.45 8115.57c0,392.38 315.33,707.21 708.34,707.21 393.01,0 708.34,-314.83 708.34,-707.21 0,-392.4 -315.33,-707.2 -708.34,-707.2 -393.01,0 -708.34,319.38 -708.34,707.2z"/>
   <path class="fil0" d="M4163.57 7919.38c0,223.55 182.8,406.06 406.72,406.06 223.91,0 406.71,-182.51 406.71,-406.06 0,-223.57 -182.8,-406.08 -406.71,-406.08 -223.92,0 -406.72,182.51 -406.72,406.08z"/>
   <path class="fil0" d="M3149.04 7809.87c0,328.51 269.62,597.7 598.66,597.7 329.03,0 598.67,-269.19 598.67,-597.7 0,-328.5 -269.64,-597.69 -598.67,-597.69 -333.59,0 -598.66,264.61 -598.66,597.69z"/>
   <path class="fil0" d="M3240.44 7641.04c0,191.64 155.39,342.21 342.74,342.21 191.95,0 342.74,-155.12 342.74,-342.21 0,-187.06 -155.36,-342.18 -342.74,-342.18 -187.35,0 -342.74,155.12 -342.74,342.18z"/>
   <path class="fil0" d="M4675.38 7905.68c0,328.5 269.63,597.69 598.67,597.69 329.04,0 598.65,-269.19 598.65,-597.69 0,-328.51 -269.61,-597.7 -598.65,-597.7 -333.61,0 -598.67,264.61 -598.67,597.7z"/>
   <path class="fil0" d="M4766.79 7736.87c0,191.61 155.36,342.19 342.74,342.19 187.35,0 342.74,-155.13 342.74,-342.19 0,-191.63 -155.39,-342.21 -342.74,-342.21 -187.38,0 -342.74,150.58 -342.74,342.21z"/>
   <path class="fil0" d="M6521.61 8042.57c0,328.51 269.64,597.7 598.68,597.7 329.03,0 598.64,-269.19 598.64,-597.7 0,-328.5 -269.61,-597.69 -598.64,-597.69 -333.62,0 -598.68,269.19 -598.68,597.69z"/>
   <path class="fil0" d="M6613.03 7873.74c0,191.64 155.36,342.21 342.74,342.21 191.93,0 342.74,-155.12 342.74,-342.21 0,-191.61 -155.39,-342.18 -342.74,-342.18 -187.38,0 -342.74,155.12 -342.74,342.18z"/>
   <path class="fil0" d="M7243.66 7942.19c0,328.51 269.64,597.69 598.67,597.69 329.04,0 598.65,-269.18 598.65,-597.69 0,-328.51 -269.61,-597.69 -598.65,-597.69 -329.03,0 -598.67,264.61 -598.67,597.69z"/>
   <path class="fil0" d="M7335.08 7773.36c0,191.64 155.36,342.21 342.74,342.21 191.93,0 342.74,-155.12 342.74,-342.21 0,-191.61 -155.39,-342.19 -342.74,-342.19 -187.38,0 -342.74,150.58 -342.74,342.19z"/>
   <path class="fil0" d="M6777.55 7846.36c0,191.64 155.36,342.18 342.74,342.18 191.93,0 342.74,-155.12 342.74,-342.18 0,-191.64 -155.39,-342.19 -342.74,-342.19 -191.93,0 -342.74,155.13 -342.74,342.19z"/>
   <path class="fil0" d="M9332.1 7873.74c0,214.45 173.67,392.38 393.01,392.38 214.79,0 393.01,-173.38 393.01,-392.38 0,-214.44 -173.64,-392.4 -393.01,-392.4 -219.34,4.58 -393.01,177.96 -393.01,392.4z"/>
   <path class="fil0" d="M9391.52 7764.23c0,123.19 100.54,223.57 223.92,223.57 123.37,0 223.92,-100.38 223.92,-223.57 0,-123.19 -100.55,-223.57 -223.92,-223.57 -123.38,0 -223.92,100.38 -223.92,223.57z"/>
   <path class="fil0" d="M19600.66 7563.49c0,182.49 146.23,328.51 329.03,328.51 182.8,0 329.04,-146.02 329.04,-328.51 0,-182.51 -146.24,-328.5 -329.04,-328.5 -178.22,-4.58 -329.03,145.99 -329.03,328.5z"/>
   <path class="fil0" d="M19490.99 7892c0,246.38 196.5,442.57 443.28,442.57 246.75,0 443.26,-196.19 443.26,-442.57 0,-246.38 -196.51,-442.57 -443.26,-442.57 -246.78,0 -443.28,196.19 -443.28,442.57z"/>
   <path class="fil0" d="M19714.9 7280.6c0,123.19 95.97,223.57 219.37,223.57 118.8,0 219.34,-100.38 219.34,-223.57 0,-123.19 -95.97,-223.57 -219.34,-223.57 -123.4,0 -219.37,100.38 -219.37,223.57z"/>
   <path class="fil0" d="M19650.93 7563.47c0,104.96 86.83,191.63 191.93,191.63 105.11,0 191.92,-86.67 191.92,-191.63 0,-104.94 -86.81,-191.62 -191.92,-191.62 -105.1,0 -191.93,86.68 -191.93,191.62z"/>
   <path class="fil0" d="M19742.31 7307.98c0,77.55 63.98,146 146.24,146 77.71,0 146.23,-63.87 146.23,-146 0,-77.57 -63.97,-145.99 -146.23,-145.99 -77.68,0 -146.24,63.87 -146.24,145.99z"/>
   <path class="fil0" d="M18042.31 7691.23c0,146.03 118.83,264.64 265.06,264.64 146.24,0 265.06,-118.61 265.06,-264.64 0,-145.99 -118.82,-264.61 -265.06,-264.61 -146.23,0 -265.06,118.62 -265.06,264.61z"/>
   <path class="fil0" d="M18133.73 7463.11c0,100.38 77.68,182.51 173.64,182.51 95.97,0 173.68,-82.13 173.68,-182.51 0,-100.38 -77.71,-182.51 -173.68,-182.51 -95.96,4.58 -173.64,82.13 -173.64,182.51z"/>
   <path class="fil0" d="M18083.46 7691.23c0,86.71 68.55,155.13 155.36,155.13 86.84,0 155.39,-68.42 155.39,-155.13 0,-82.12 -68.55,-150.55 -155.39,-150.55 -86.81,-4.57 -155.36,63.88 -155.36,150.55z"/>
   <path class="fil0" d="M18156.56 7485.92c0,63.89 50.27,114.06 114.25,114.06 63.97,0 114.24,-50.17 114.24,-114.06 0,-63.87 -50.27,-114.07 -114.24,-114.07 -63.98,-4.55 -114.25,50.2 -114.25,114.07z"/>
  </g>
 </g>
</svg>
