<?xml version="1.0" encoding="UTF-8"?>
<!DOCTYPE svg PUBLIC "-//W3C//DTD SVG 1.1//EN" "http://www.w3.org/Graphics/SVG/1.1/DTD/svg11.dtd">
<!-- Creator: CorelDRAW -->
<svg xmlns="http://www.w3.org/2000/svg" xml:space="preserve" width="31mm" height="8mm" version="1.1" style="shape-rendering:geometricPrecision; text-rendering:geometricPrecision; image-rendering:optimizeQuality; fill-rule:evenodd; clip-rule:evenodd"
viewBox="0 0 3100 800"
 xmlns:xlink="http://www.w3.org/1999/xlink"
 xmlns:xodm="http://www.corel.com/coreldraw/odm/2003">
 <defs>
  <style type="text/css">
   <![CDATA[
    .str0 {stroke:#E3B873;stroke-width:26.46;stroke-linecap:round;stroke-miterlimit:22.9256}
    .fil1 {fill:none;fill-rule:nonzero}
    .fil0 {fill:#E3B873;fill-rule:nonzero}
   ]]>
  </style>
 </defs>
 <g id="Слой_x0020_1">
  <metadata id="CorelCorpID_0Corel-Layer"/>
  <g id="_2378014075600">
   <g>
    <path class="fil0" d="M1970.08 273l-638.18 -236.43c-8.16,-3.02 -17.23,1.15 -20.24,9.32 0,0.01 0,0.02 -0.01,0.02l-70.65 192.31c-3,8.17 1.19,17.23 9.36,20.23l0.01 0 73.97 27.16 -16.3 44.41c-2.99,8.17 1.2,17.22 9.36,20.22l147.98 54.33 -10.87 29.6c-9.89,26.51 -0.67,56.35 22.46,72.65l0 80.44 -212.09 0c-10.26,-23.47 -31.27,-40.51 -56.36,-45.71l0 -33.1c0,-8.7 -7.06,-15.76 -15.77,-15.76l-63.55 0c-8.7,0 -15.76,7.06 -15.76,15.76l0 252.2c0,8.71 7.06,15.76 15.76,15.76l63.55 0c8.71,0 15.77,-7.05 15.77,-15.76l0 -33.1c25.09,-5.2 46.1,-22.24 56.36,-45.71l212.09 0 0 15.76c0,26.12 21.17,47.29 47.28,47.29 26.11,0 47.28,-21.17 47.28,-47.29l0 -174.62c14.33,-7.1 25.4,-19.42 30.92,-34.44l10.87 -29.59 133.17 48.86c1.74,0.64 3.57,0.96 5.43,0.96 6.61,0 12.52,-4.12 14.8,-10.33l5.91 -16.09c51.29,9.65 100.69,-24.09 110.33,-75.38 3.57,-18.95 1.26,-38.54 -6.63,-56.13l95.55 -49.07c7.75,-3.97 10.81,-13.47 6.84,-21.21 -1.8,-3.52 -4.85,-6.23 -8.56,-7.6l-0.08 0.04zm-461.59 248.19l13.05 4.73c5.94,2.13 12.17,3.35 18.48,3.62l0 57.72 -31.53 0 0 -66.07zm-331.49 223.7l-32.03 0 0 -220.68 32.03 0 0 220.68zm63.04 -94.57c-0.02,20.03 -12.64,37.88 -31.52,44.59l0 -120.71c18.88,6.7 31.5,24.55 31.52,44.59l0 31.53zm32.02 -31.53l267.96 0 0 31.53 -267.96 0 0 -31.53zm252.19 94.57c-8.7,0 -15.76,-7.06 -15.76,-15.76l0 -15.76 31.53 0 0 15.76c0,8.7 -7.06,15.76 -15.77,15.76zm59.48 -265.27l-10.87 29.6c-6.01,16.32 -24.11,24.7 -40.44,18.7l-29.65 -10.86c-16.34,-6 -24.73,-24.1 -18.73,-40.44 0,0 0,0 0,-0.01l10.88 -29.58 79.89 29.33 8.92 3.26zm158.84 24.74l-399.51 -146.7 10.89 -29.6 236.72 86.94c5.61,2.03 11.89,0.76 16.25,-3.32l44.23 -41.64 124.02 45.55 -32.6 88.77zm106.57 -61.59c-9.99,26.93 -36.85,43.75 -65.43,40.98l24.35 -66.35 39.79 -20.48c6.22,14.56 6.68,30.96 1.29,45.85zm-53.2 -54.5c-0.84,0.07 -1.66,0.21 -2.48,0.43l-140.53 -51.6c-5.6,-2.06 -11.89,-0.78 -16.24,3.31l-44.29 41.64 -316.37 -116.18 59.76 -162.71 589.75 218.49 -129.6 66.62z"/>
    <path class="fil1 str0" d="M1421.83 244.9l-13.9 37.57m74.48 -15.34l-13.9 37.56m72.69 -15.7l-13.9 37.57"/>
   </g>
   <path class="fil0" d="M48.3 385.59l805.82 0c11.28,-0.01 20.42,9.13 20.42,20.4l0 0.01c0,11.27 -9.14,20.41 -20.42,20.41l-805.82 0.01c-11.27,-0.01 -20.41,-9.15 -20.41,-20.43l-0.01 0.01c0.01,-11.28 9.15,-20.42 20.43,-20.42l-0.01 0.01z"/>
   <path class="fil0" d="M2230.14 385.59l805.82 0c11.28,-0.01 20.42,9.13 20.42,20.4l0 0.01c0,11.27 -9.14,20.41 -20.42,20.41l-805.82 0.01c-11.27,-0.01 -20.41,-9.15 -20.41,-20.43l-0.01 0.01c0.01,-11.28 9.15,-20.42 20.43,-20.42l-0.01 0.01z"/>
  </g>
 </g>
</svg>
